<?xml version="1.0" encoding="UTF-8"?>
<svg width="792px" height="354px" viewBox="0 0 792 354" version="1.1" xmlns="http://www.w3.org/2000/svg" xmlns:xlink="http://www.w3.org/1999/xlink">
    <!-- Generator: Sketch 63.1 (92452) - https://sketch.com -->
    <title>distortion-continuous</title>
    <desc>Created with Sketch.</desc>
    <g id="distortion-continuous" stroke="none" stroke-width="1" fill="none" fill-rule="evenodd">
        <rect fill="#FFFFFF" x="0" y="0" width="792" height="354"></rect>
        <g id="axis/General-Copy" transform="translate(-497.000000, 36.000000)">
            <g id="axis/label-x" transform="translate(1087.000000, 244.000000)" font-family="SourceSansPro-Regular, Source Sans Pro" font-size="16" font-weight="normal">
                <text id="x"></text>
            </g>
            <path id="Path-6" d="M707,4 L714,18 L708,18 L708,255 L1063,255 L1063,249 L1077,256 L1063,263 L1063,257 L706,257 L706,18 L700,18 L707,4 Z" fill="#636F80" fill-rule="nonzero"></path>
            <g id="axis/label-y" font-family="SourceSansPro-Regular, Source Sans Pro" font-size="16" font-weight="normal">
                <text id="y"></text>
            </g>
        </g>
        <line x1="307" y1="54" x2="307" y2="288" id="Stroke-5-Copy" stroke="#9A9FAF" stroke-width="2" stroke-dasharray="6"></line>
        <path d="M211.5,72 C289.373483,125.752468 262.270394,189.012425 307.173245,227.814146 C352.076096,266.615867 445.023333,294.015186 543.5,291.883754" id="Stroke-1-Copy" stroke="#73B0DE" stroke-width="3"></path>
        <path d="M612.932,289.192 C615.028,289.192 616.708,288.04 616.708,286.024 C616.708,284.584 615.812,283.672 614.612,283.432 L614.612,283.368 C615.62,283 616.164,282.104 616.164,281 C616.164,279.32 614.804,278.312 612.836,278.312 C611.556,278.312 610.372,278.824 609.62,279.56 L610.34,280.456 C610.98,279.864 611.828,279.496 612.804,279.496 C613.972,279.496 614.852,280.072 614.852,281.176 C614.852,282.36 614.084,282.968 612.244,282.968 L611.38,282.968 L611.38,283.992 L612.564,283.992 C614.356,283.992 615.38,284.616 615.38,285.96 C615.38,287.272 614.276,288.008 612.916,288.008 C611.7,288.008 610.836,287.672 609.908,286.76 L609.156,287.656 C610.212,288.76 611.412,289.192 612.932,289.192 Z M619.988,289 L619.988,285.544 L623.716,285.544 L623.716,289 L625.044,289 L625.044,281.224 L623.716,281.224 L623.716,284.376 L619.988,284.376 L619.988,281.224 L618.66,281.224 L618.66,289 L619.988,289 Z M629.444,289.192 C630.42,289.192 631.268,288.696 632.004,288.072 L632.052,288.072 L632.18,289 L633.268,289 L633.268,284.216 C633.268,282.296 632.452,281.032 630.564,281.032 C629.316,281.032 628.228,281.56 627.508,282.04 L628.02,282.936 C628.628,282.536 629.444,282.136 630.34,282.136 C631.604,282.136 631.924,283.08 631.94,284.056 C628.612,284.424 627.172,285.256 627.172,286.984 C627.172,288.392 628.148,289.192 629.444,289.192 Z M629.812,288.104 C629.06,288.104 628.468,287.768 628.468,286.904 C628.468,285.896 629.316,285.304 631.94,285 L631.94,287.112 C631.188,287.768 630.564,288.104 629.812,288.104 Z M641.316,289 L641.316,281.224 L639.988,281.224 L639.988,284.84 C639.54,284.936 639.188,284.984 638.724,284.984 C637.316,284.984 636.692,284.504 636.692,283.352 L636.692,281.224 L635.364,281.224 L635.364,283.352 C635.364,285.288 636.5,286.072 638.468,286.072 C639.156,286.072 639.444,286.008 639.988,285.912 L639.988,289 L641.316,289 Z M647.076,289.192 C648.148,289.192 648.98,288.872 649.652,288.392 L649.188,287.544 C648.644,287.912 647.988,288.12 647.236,288.12 C645.764,288.12 644.788,287.064 644.676,285.464 L649.908,285.464 C649.956,285.208 649.972,284.968 649.972,284.68 C649.972,282.44 648.836,281.032 646.852,281.032 C645.076,281.032 643.364,282.584 643.364,285.112 C643.364,287.688 644.996,289.192 647.076,289.192 Z M648.788,284.44 L644.676,284.44 C644.836,282.952 645.796,282.088 646.884,282.088 C648.068,282.088 648.788,282.904 648.788,284.44 Z M653.204,289 L653.204,285.544 L656.932,285.544 L656.932,289 L658.26,289 L658.26,281.224 L656.932,281.224 L656.932,284.376 L653.204,284.376 L653.204,281.224 L651.876,281.224 L651.876,289 L653.204,289 Z M662.292,289 L665.06,284.616 C665.364,284.136 665.764,283.432 666.068,282.84 L666.132,282.84 C666.052,283.96 666.004,284.92 666.004,285.752 L666.004,289 L667.268,289 L667.268,281.224 L665.86,281.224 L663.076,285.624 C662.772,286.104 662.372,286.824 662.068,287.384 L662.004,287.384 C662.084,286.28 662.148,285.304 662.148,284.472 L662.148,281.224 L660.868,281.224 L660.868,289 L662.292,289 Z M673.028,289.192 C674.1,289.192 674.932,288.872 675.604,288.392 L675.14,287.544 C674.596,287.912 673.94,288.12 673.188,288.12 C671.716,288.12 670.74,287.064 670.628,285.464 L675.86,285.464 C675.908,285.208 675.924,284.968 675.924,284.68 C675.924,282.44 674.788,281.032 672.804,281.032 C671.028,281.032 669.316,282.584 669.316,285.112 C669.316,287.688 670.948,289.192 673.028,289.192 Z M674.74,284.44 L670.628,284.44 C670.788,282.952 671.748,282.088 672.836,282.088 C674.02,282.088 674.74,282.904 674.74,284.44 Z M587.668,311 L588.708,309.192 C588.98,308.728 589.236,308.248 589.492,307.8 L589.556,307.8 C589.844,308.248 590.132,308.728 590.404,309.192 L591.54,311 L592.98,311 L590.452,307.08 L592.804,303.224 L591.412,303.224 L590.468,304.92 C590.228,305.352 590.004,305.784 589.764,306.216 L589.7,306.216 C589.444,305.784 589.188,305.352 588.948,304.92 L587.908,303.224 L586.468,303.224 L588.82,306.936 L586.276,311 L587.668,311 Z M596.148,311.192 C597.124,311.192 597.972,310.696 598.708,310.072 L598.756,310.072 L598.884,311 L599.972,311 L599.972,306.216 C599.972,304.296 599.156,303.032 597.268,303.032 C596.02,303.032 594.932,303.56 594.212,304.04 L594.724,304.936 C595.332,304.536 596.148,304.136 597.044,304.136 C598.308,304.136 598.628,305.08 598.644,306.056 C595.316,306.424 593.876,307.256 593.876,308.984 C593.876,310.392 594.852,311.192 596.148,311.192 Z M596.516,310.104 C595.764,310.104 595.172,309.768 595.172,308.904 C595.172,307.896 596.02,307.304 598.644,307 L598.644,309.112 C597.892,309.768 597.268,310.104 596.516,310.104 Z M603.764,314.28 L603.764,311.656 L603.732,310.296 C604.436,310.856 605.172,311.192 605.876,311.192 C607.652,311.192 609.252,309.64 609.252,307 C609.252,304.584 608.164,303.032 606.164,303.032 C605.268,303.032 604.388,303.528 603.684,304.12 L603.636,304.12 L603.524,303.224 L602.436,303.224 L602.436,314.28 L603.764,314.28 Z M605.652,310.072 C605.14,310.072 604.468,309.864 603.764,309.272 L603.764,305.208 C604.516,304.504 605.172,304.152 605.828,304.152 C607.284,304.152 607.876,305.288 607.876,307 C607.876,308.92 606.932,310.072 605.652,310.072 Z M612.884,311.192 C613.86,311.192 614.708,310.696 615.444,310.072 L615.492,310.072 L615.62,311 L616.708,311 L616.708,306.216 C616.708,304.296 615.892,303.032 614.004,303.032 C612.756,303.032 611.668,303.56 610.948,304.04 L611.46,304.936 C612.068,304.536 612.884,304.136 613.78,304.136 C615.044,304.136 615.364,305.08 615.38,306.056 C612.052,306.424 610.612,307.256 610.612,308.984 C610.612,310.392 611.588,311.192 612.884,311.192 Z M613.252,310.104 C612.5,310.104 611.908,309.768 611.908,308.904 C611.908,307.896 612.756,307.304 615.38,307 L615.38,309.112 C614.628,309.768 614.004,310.104 613.252,310.104 Z M620.484,311 L620.484,307.496 L622.164,307.496 L624.196,311 L625.636,311 L623.14,306.904 L623.796,305.384 C624.196,304.488 624.516,304.36 624.916,304.36 C625.028,304.36 625.076,304.376 625.172,304.408 L625.412,303.16 C625.284,303.096 625.124,303.064 624.948,303.064 C624.1,303.064 623.508,303.32 622.884,304.696 L622.116,306.424 L620.484,306.424 L620.484,303.224 L619.172,303.224 L619.172,311 L620.484,311 Z M629.86,311 L629.86,304.296 L632.452,304.296 L632.452,303.224 L625.924,303.224 L625.924,304.296 L628.532,304.296 L628.532,311 L629.86,311 Z M637.092,311.192 C638.164,311.192 638.996,310.872 639.668,310.392 L639.204,309.544 C638.66,309.912 638.004,310.12 637.252,310.12 C635.78,310.12 634.804,309.064 634.692,307.464 L639.924,307.464 C639.972,307.208 639.988,306.968 639.988,306.68 C639.988,304.44 638.852,303.032 636.868,303.032 C635.092,303.032 633.38,304.584 633.38,307.112 C633.38,309.688 635.012,311.192 637.092,311.192 Z M638.804,306.44 L634.692,306.44 C634.852,304.952 635.812,304.088 636.9,304.088 C638.084,304.088 638.804,304.904 638.804,306.44 Z M643.22,314.28 L643.22,311.656 L643.188,310.296 C643.892,310.856 644.628,311.192 645.332,311.192 C647.108,311.192 648.708,309.64 648.708,307 C648.708,304.584 647.62,303.032 645.62,303.032 C644.724,303.032 643.844,303.528 643.14,304.12 L643.092,304.12 L642.98,303.224 L641.892,303.224 L641.892,314.28 L643.22,314.28 Z M645.108,310.072 C644.596,310.072 643.924,309.864 643.22,309.272 L643.22,305.208 C643.972,304.504 644.628,304.152 645.284,304.152 C646.74,304.152 647.332,305.288 647.332,307 C647.332,308.92 646.388,310.072 645.108,310.072 Z M652.196,311 L654.964,306.616 C655.268,306.136 655.668,305.432 655.972,304.84 L656.036,304.84 C655.956,305.96 655.908,306.92 655.908,307.752 L655.908,311 L657.172,311 L657.172,303.224 L655.764,303.224 L652.98,307.624 C652.676,308.104 652.276,308.824 651.972,309.384 L651.908,309.384 C651.988,308.28 652.052,307.304 652.052,306.472 L652.052,303.224 L650.772,303.224 L650.772,311 L652.196,311 Z M662.868,311.192 C663.796,311.192 664.676,310.84 665.38,310.2 L664.804,309.352 C664.34,309.768 663.7,310.088 662.98,310.088 C661.556,310.088 660.596,308.904 660.596,307.128 C660.596,305.336 661.62,304.136 663.028,304.136 C663.652,304.136 664.148,304.376 664.58,304.776 L665.236,303.944 C664.692,303.432 663.988,303.032 662.964,303.032 C660.964,303.032 659.22,304.52 659.22,307.128 C659.22,309.704 660.804,311.192 662.868,311.192 Z M669.972,311 L669.972,304.296 L672.564,304.296 L672.564,303.224 L666.036,303.224 L666.036,304.296 L668.644,304.296 L668.644,311 L669.972,311 Z M675.716,311 L678.484,306.616 C678.788,306.136 679.188,305.432 679.492,304.84 L679.556,304.84 C679.476,305.96 679.428,306.92 679.428,307.752 L679.428,311 L680.692,311 L680.692,303.224 L679.284,303.224 L676.5,307.624 C676.196,308.104 675.796,308.824 675.492,309.384 L675.428,309.384 C675.508,308.28 675.572,307.304 675.572,306.472 L675.572,303.224 L674.292,303.224 L674.292,311 L675.716,311 Z M684.628,311 L684.628,307.496 L686.308,307.496 L688.34,311 L689.78,311 L687.284,306.904 L687.94,305.384 C688.34,304.488 688.66,304.36 689.06,304.36 C689.172,304.36 689.22,304.376 689.316,304.408 L689.556,303.16 C689.428,303.096 689.268,303.064 689.092,303.064 C688.244,303.064 687.652,303.32 687.028,304.696 L686.26,306.424 L684.628,306.424 L684.628,303.224 L683.316,303.224 L683.316,311 L684.628,311 Z M692.66,311 L695.428,306.616 C695.732,306.136 696.132,305.432 696.436,304.84 L696.5,304.84 C696.42,305.96 696.372,306.92 696.372,307.752 L696.372,311 L697.636,311 L697.636,303.224 L696.228,303.224 L693.444,307.624 C693.14,308.104 692.74,308.824 692.436,309.384 L692.372,309.384 C692.452,308.28 692.516,307.304 692.516,306.472 L692.516,303.224 L691.236,303.224 L691.236,311 L692.66,311 Z" id="Значениехарактеристики" fill="#333333" fill-rule="nonzero"></path>
        <path d="M144.432,56 L144.432,45.504 L143.072,45.504 L143.072,50.496 C142.624,50.592 142.032,50.672 141.2,50.672 C139.568,50.672 138.688,50.112 138.688,48.352 L138.688,45.504 L137.36,45.504 L137.36,48.352 C137.36,50.88 138.656,51.776 141.072,51.776 C141.952,51.776 142.544,51.68 143.072,51.6 L143.072,56 L144.432,56 Z M148.96,56.192 C149.936,56.192 150.784,55.696 151.52,55.072 L151.568,55.072 L151.696,56 L152.784,56 L152.784,51.216 C152.784,49.296 151.968,48.032 150.08,48.032 C148.832,48.032 147.744,48.56 147.024,49.04 L147.536,49.936 C148.144,49.536 148.96,49.136 149.856,49.136 C151.12,49.136 151.44,50.08 151.456,51.056 C148.128,51.424 146.688,52.256 146.688,53.984 C146.688,55.392 147.664,56.192 148.96,56.192 Z M149.328,55.104 C148.576,55.104 147.984,54.768 147.984,53.904 C147.984,52.896 148.832,52.304 151.456,52 L151.456,54.112 C150.704,54.768 150.08,55.104 149.328,55.104 Z M158.32,56.192 C159.248,56.192 160.128,55.84 160.832,55.2 L160.256,54.352 C159.792,54.768 159.152,55.088 158.432,55.088 C157.008,55.088 156.048,53.904 156.048,52.128 C156.048,50.336 157.072,49.136 158.48,49.136 C159.104,49.136 159.6,49.376 160.032,49.776 L160.688,48.944 C160.144,48.432 159.44,48.032 158.416,48.032 C156.416,48.032 154.672,49.52 154.672,52.128 C154.672,54.704 156.256,56.192 158.32,56.192 Z M165.424,56 L165.424,49.296 L168.016,49.296 L168.016,48.224 L161.488,48.224 L161.488,49.296 L164.096,49.296 L164.096,56 L165.424,56 Z M172.544,56.192 C174.448,56.192 176.16,54.704 176.16,52.128 C176.16,49.52 174.448,48.032 172.544,48.032 C170.64,48.032 168.944,49.52 168.944,52.128 C168.944,54.704 170.64,56.192 172.544,56.192 Z M172.544,55.088 C171.216,55.088 170.32,53.904 170.32,52.128 C170.32,50.336 171.216,49.136 172.544,49.136 C173.888,49.136 174.784,50.336 174.784,52.128 C174.784,53.904 173.888,55.088 172.544,55.088 Z M180.96,56 L180.96,49.296 L183.552,49.296 L183.552,48.224 L177.024,48.224 L177.024,49.296 L179.632,49.296 L179.632,56 L180.96,56 Z M186.736,56.192 C187.712,56.192 188.56,55.696 189.296,55.072 L189.344,55.072 L189.472,56 L190.56,56 L190.56,51.216 C190.56,49.296 189.744,48.032 187.856,48.032 C186.608,48.032 185.52,48.56 184.8,49.04 L185.312,49.936 C185.92,49.536 186.736,49.136 187.632,49.136 C188.896,49.136 189.216,50.08 189.232,51.056 C185.904,51.424 184.464,52.256 184.464,53.984 C184.464,55.392 185.44,56.192 186.736,56.192 Z M187.104,55.104 C186.352,55.104 185.76,54.768 185.76,53.904 C185.76,52.896 186.608,52.304 189.232,52 L189.232,54.112 C188.48,54.768 187.856,55.104 187.104,55.104 Z" id="Частота" fill="#333333" fill-rule="nonzero"></path>
        <path d="M398.896,72 L402.72,65.408 L403.856,63.2 L403.92,63.2 C403.84,64.256 403.744,65.408 403.744,66.496 L403.744,72 L405.072,72 L405.056,61.504 L403.6,61.504 L399.776,68.096 L398.64,70.304 L398.576,70.304 C398.656,69.232 398.752,68.048 398.752,66.96 L398.752,61.504 L397.44,61.504 L397.44,72 L398.896,72 Z M410.88,72.192 C411.808,72.192 412.688,71.84 413.392,71.2 L412.816,70.352 C412.352,70.768 411.712,71.088 410.992,71.088 C409.568,71.088 408.608,69.904 408.608,68.128 C408.608,66.336 409.632,65.136 411.04,65.136 C411.664,65.136 412.16,65.376 412.592,65.776 L413.248,64.944 C412.704,64.432 412,64.032 410.976,64.032 C408.976,64.032 407.232,65.52 407.232,68.128 C407.232,70.704 408.816,72.192 410.88,72.192 Z M416.416,72 L416.416,68.496 L418.096,68.496 L420.128,72 L421.568,72 L419.072,67.904 L419.728,66.384 C420.128,65.488 420.448,65.36 420.848,65.36 C420.96,65.36 421.008,65.376 421.104,65.408 L421.344,64.16 C421.216,64.096 421.056,64.064 420.88,64.064 C420.032,64.064 419.44,64.32 418.816,65.696 L418.048,67.424 L416.416,67.424 L416.416,64.224 L415.104,64.224 L415.104,72 L416.416,72 Z M424.656,72.192 C425.632,72.192 426.48,71.696 427.216,71.072 L427.264,71.072 L427.392,72 L428.48,72 L428.48,67.216 C428.48,65.296 427.664,64.032 425.776,64.032 C424.528,64.032 423.44,64.56 422.72,65.04 L423.232,65.936 C423.84,65.536 424.656,65.136 425.552,65.136 C426.816,65.136 427.136,66.08 427.152,67.056 C423.824,67.424 422.384,68.256 422.384,69.984 C422.384,71.392 423.36,72.192 424.656,72.192 Z M425.024,71.104 C424.272,71.104 423.68,70.768 423.68,69.904 C423.68,68.896 424.528,68.304 427.152,68 L427.152,70.112 C426.4,70.768 425.776,71.104 425.024,71.104 Z M431.28,72 L433.136,68.496 L434.544,68.496 L434.544,72 L435.744,72 L435.744,68.496 L437.152,68.496 L439.008,72 L440.464,72 L438.096,67.92 L438.704,66.384 C439.056,65.536 439.392,65.36 439.76,65.36 C439.872,65.36 439.936,65.376 440.032,65.408 L440.256,64.16 C440.144,64.096 439.968,64.064 439.792,64.064 C438.976,64.064 438.352,64.432 437.808,65.696 L437.104,67.424 L435.744,67.424 L435.744,64.224 L434.544,64.224 L434.544,67.424 L433.2,67.424 L432.48,65.696 C431.952,64.432 431.312,64.064 430.496,64.064 C430.336,64.064 430.16,64.096 430.032,64.16 L430.272,65.408 C430.368,65.376 430.416,65.36 430.528,65.36 C430.912,65.36 431.248,65.536 431.584,66.384 L432.208,67.92 L429.84,72 L431.28,72 Z M444.832,72.192 C445.904,72.192 446.736,71.872 447.408,71.392 L446.944,70.544 C446.4,70.912 445.744,71.12 444.992,71.12 C443.52,71.12 442.544,70.064 442.432,68.464 L447.664,68.464 C447.712,68.208 447.728,67.968 447.728,67.68 C447.728,65.44 446.592,64.032 444.608,64.032 C442.832,64.032 441.12,65.584 441.12,68.112 C441.12,70.688 442.752,72.192 444.832,72.192 Z M446.544,67.44 L442.432,67.44 C442.592,65.952 443.552,65.088 444.64,65.088 C445.824,65.088 446.544,65.904 446.544,67.44 Z M450.96,72 L450.96,68.544 L454.688,68.544 L454.688,72 L456.016,72 L456.016,64.224 L454.688,64.224 L454.688,67.376 L450.96,67.376 L450.96,64.224 L449.632,64.224 L449.632,72 L450.96,72 Z M460.048,72 L462.816,67.616 C463.12,67.136 463.52,66.432 463.824,65.84 L463.888,65.84 C463.808,66.96 463.76,67.92 463.76,68.752 L463.76,72 L465.024,72 L465.024,64.224 L463.616,64.224 L460.832,68.624 C460.528,69.104 460.128,69.824 459.824,70.384 L459.76,70.384 C459.84,69.28 459.904,68.304 459.904,67.472 L459.904,64.224 L458.624,64.224 L458.624,72 L460.048,72 Z M470.784,72.192 C471.856,72.192 472.688,71.872 473.36,71.392 L472.896,70.544 C472.352,70.912 471.696,71.12 470.944,71.12 C469.472,71.12 468.496,70.064 468.384,68.464 L473.616,68.464 C473.664,68.208 473.68,67.968 473.68,67.68 C473.68,65.44 472.544,64.032 470.56,64.032 C468.784,64.032 467.072,65.584 467.072,68.112 C467.072,70.688 468.704,72.192 470.784,72.192 Z M472.496,67.44 L468.384,67.44 C468.544,65.952 469.504,65.088 470.592,65.088 C471.776,65.088 472.496,65.904 472.496,67.44 Z M480.112,75.28 L480.112,72.656 L480.08,71.296 C480.784,71.856 481.52,72.192 482.224,72.192 C484,72.192 485.6,70.64 485.6,68 C485.6,65.584 484.512,64.032 482.512,64.032 C481.616,64.032 480.736,64.528 480.032,65.12 L479.984,65.12 L479.872,64.224 L478.784,64.224 L478.784,75.28 L480.112,75.28 Z M482,71.072 C481.488,71.072 480.816,70.864 480.112,70.272 L480.112,66.208 C480.864,65.504 481.52,65.152 482.176,65.152 C483.632,65.152 484.224,66.288 484.224,68 C484.224,69.92 483.28,71.072 482,71.072 Z M489.232,72.192 C490.208,72.192 491.056,71.696 491.792,71.072 L491.84,71.072 L491.968,72 L493.056,72 L493.056,67.216 C493.056,65.296 492.24,64.032 490.352,64.032 C489.104,64.032 488.016,64.56 487.296,65.04 L487.808,65.936 C488.416,65.536 489.232,65.136 490.128,65.136 C491.392,65.136 491.712,66.08 491.728,67.056 C488.4,67.424 486.96,68.256 486.96,69.984 C486.96,71.392 487.936,72.192 489.232,72.192 Z M489.6,71.104 C488.848,71.104 488.256,70.768 488.256,69.904 C488.256,68.896 489.104,68.304 491.728,68 L491.728,70.112 C490.976,70.768 490.352,71.104 489.6,71.104 Z M498.592,72.192 C499.52,72.192 500.4,71.84 501.104,71.2 L500.528,70.352 C500.064,70.768 499.424,71.088 498.704,71.088 C497.28,71.088 496.32,69.904 496.32,68.128 C496.32,66.336 497.344,65.136 498.752,65.136 C499.376,65.136 499.872,65.376 500.304,65.776 L500.96,64.944 C500.416,64.432 499.712,64.032 498.688,64.032 C496.688,64.032 494.944,65.52 494.944,68.128 C494.944,70.704 496.528,72.192 498.592,72.192 Z M504.144,72 L504.144,65.296 L507.712,65.296 L507.712,72 L509.04,72 L509.04,64.224 L502.816,64.224 L502.816,72 L504.144,72 Z M512.992,75.28 L512.992,72.656 L512.96,71.296 C513.664,71.856 514.4,72.192 515.104,72.192 C516.88,72.192 518.48,70.64 518.48,68 C518.48,65.584 517.392,64.032 515.392,64.032 C514.496,64.032 513.616,64.528 512.912,65.12 L512.864,65.12 L512.752,64.224 L511.664,64.224 L511.664,75.28 L512.992,75.28 Z M514.88,71.072 C514.368,71.072 513.696,70.864 512.992,70.272 L512.992,66.208 C513.744,65.504 514.4,65.152 515.056,65.152 C516.512,65.152 517.104,66.288 517.104,68 C517.104,69.92 516.16,71.072 514.88,71.072 Z M523.68,72.192 C524.752,72.192 525.584,71.872 526.256,71.392 L525.792,70.544 C525.248,70.912 524.592,71.12 523.84,71.12 C522.368,71.12 521.392,70.064 521.28,68.464 L526.512,68.464 C526.56,68.208 526.576,67.968 526.576,67.68 C526.576,65.44 525.44,64.032 523.456,64.032 C521.68,64.032 519.968,65.584 519.968,68.112 C519.968,70.688 521.6,72.192 523.68,72.192 Z M525.392,67.44 L521.28,67.44 C521.44,65.952 522.4,65.088 523.488,65.088 C524.672,65.088 525.392,65.904 525.392,67.44 Z M528.752,74.752 L528.752,72 L534.064,72 L534.064,74.752 L535.2,74.752 L535.344,71.76 L535.344,70.912 L534.208,70.912 L534.208,64.224 L529.36,64.224 L528.944,67.664 C528.64,70.16 528.288,70.688 527.856,70.912 L527.472,70.912 L527.472,71.76 L527.616,74.752 L528.752,74.752 Z M532.88,70.912 L529.28,70.912 C529.632,70.352 529.936,69.44 530.112,67.92 L530.416,65.296 L532.88,65.296 L532.88,70.912 Z M540.144,72.192 C541.216,72.192 542.048,71.872 542.72,71.392 L542.256,70.544 C541.712,70.912 541.056,71.12 540.304,71.12 C538.832,71.12 537.856,70.064 537.744,68.464 L542.976,68.464 C543.024,68.208 543.04,67.968 543.04,67.68 C543.04,65.44 541.904,64.032 539.92,64.032 C538.144,64.032 536.432,65.584 536.432,68.112 C536.432,70.688 538.064,72.192 540.144,72.192 Z M541.856,67.44 L537.744,67.44 C537.904,65.952 538.864,65.088 539.952,65.088 C541.136,65.088 541.856,65.904 541.856,67.44 Z M544.512,72.144 C545.648,72.144 546.352,71.296 546.576,69.6 C546.752,68.176 546.912,66.736 547.088,65.296 L549.488,65.296 L549.488,72 L550.816,72 L550.816,64.224 L546.032,64.224 C545.84,65.904 545.648,67.584 545.44,69.264 C545.296,70.368 544.944,70.864 544.4,70.864 C544.256,70.864 544.144,70.832 544.048,70.8 L543.792,72.016 C544.016,72.112 544.208,72.144 544.512,72.144 Z M556.576,72.192 C557.648,72.192 558.48,71.872 559.152,71.392 L558.688,70.544 C558.144,70.912 557.488,71.12 556.736,71.12 C555.264,71.12 554.288,70.064 554.176,68.464 L559.408,68.464 C559.456,68.208 559.472,67.968 559.472,67.68 C559.472,65.44 558.336,64.032 556.352,64.032 C554.576,64.032 552.864,65.584 552.864,68.112 C552.864,70.688 554.496,72.192 556.576,72.192 Z M558.288,67.44 L554.176,67.44 C554.336,65.952 555.296,65.088 556.384,65.088 C557.568,65.088 558.288,65.904 558.288,67.44 Z M562.704,72 L562.704,68.544 L566.432,68.544 L566.432,72 L567.76,72 L567.76,64.224 L566.432,64.224 L566.432,67.376 L562.704,67.376 L562.704,64.224 L561.376,64.224 L561.376,72 L562.704,72 Z M571.792,72 L574.56,67.616 C574.864,67.136 575.264,66.432 575.568,65.84 L575.632,65.84 C575.552,66.96 575.504,67.92 575.504,68.752 L575.504,72 L576.768,72 L576.768,64.224 L575.36,64.224 L572.576,68.624 C572.272,69.104 571.872,69.824 571.568,70.384 L571.504,70.384 C571.584,69.28 571.648,68.304 571.648,67.472 L571.648,64.224 L570.368,64.224 L570.368,72 L571.792,72 Z M580.064,72 L582.208,68.944 L583.68,68.944 L583.68,72 L584.976,72 L584.976,64.224 L582.24,64.224 C580.496,64.224 579.184,64.816 579.184,66.512 C579.184,67.76 579.952,68.464 580.96,68.768 L578.592,72 L580.064,72 Z M583.68,67.936 L582.464,67.936 C581.232,67.936 580.496,67.456 580.496,66.528 C580.496,65.648 581.232,65.264 582.464,65.264 L583.68,65.264 L583.68,67.936 Z M400.416,94 C402.224,94 403.488,93.312 403.488,91.776 C403.488,90.656 402.736,90.112 401.872,89.92 L401.872,89.856 C402.672,89.616 403.168,89.056 403.168,88.192 C403.168,86.784 402,86.224 400.304,86.224 L397.312,86.224 L397.312,94 L400.416,94 Z M400.08,89.456 L398.592,89.456 L398.592,87.2 L400.16,87.2 C401.376,87.2 401.888,87.616 401.888,88.32 C401.888,89.024 401.376,89.456 400.08,89.456 Z M400.288,93.008 L398.592,93.008 L398.592,90.464 L400.192,90.464 C401.52,90.464 402.208,90.928 402.208,91.696 C402.208,92.528 401.584,93.008 400.288,93.008 Z M408.544,94 C410.352,94 411.616,93.312 411.616,91.776 C411.616,90.656 410.864,90.112 410,89.92 L410,89.856 C410.8,89.616 411.296,89.056 411.296,88.192 C411.296,86.784 410.128,86.224 408.432,86.224 L405.44,86.224 L405.44,94 L408.544,94 Z M408.208,89.456 L406.72,89.456 L406.72,87.2 L408.288,87.2 C409.504,87.2 410.016,87.616 410.016,88.32 C410.016,89.024 409.504,89.456 408.208,89.456 Z M408.416,93.008 L406.72,93.008 L406.72,90.464 L408.32,90.464 C409.648,90.464 410.336,90.928 410.336,91.696 C410.336,92.528 409.712,93.008 408.416,93.008 Z M414.992,94 L417.76,89.616 C418.064,89.136 418.464,88.432 418.768,87.84 L418.832,87.84 C418.752,88.96 418.704,89.92 418.704,90.752 L418.704,94 L419.968,94 L419.968,86.224 L418.56,86.224 L415.776,90.624 C415.472,91.104 415.072,91.824 414.768,92.384 L414.704,92.384 C414.784,91.28 414.848,90.304 414.848,89.472 L414.848,86.224 L413.568,86.224 L413.568,94 L414.992,94 Z M422.864,96.752 L422.864,94 L428.176,94 L428.176,96.752 L429.312,96.752 L429.456,93.76 L429.456,92.912 L428.32,92.912 L428.32,86.224 L423.472,86.224 L423.056,89.664 C422.752,92.16 422.4,92.688 421.968,92.912 L421.584,92.912 L421.584,93.76 L421.728,96.752 L422.864,96.752 Z M426.992,92.912 L423.392,92.912 C423.744,92.352 424.048,91.44 424.224,89.92 L424.528,87.296 L426.992,87.296 L426.992,92.912 Z M431.2,97.344 C432.752,97.344 433.568,96.176 434.112,94.64 L437.04,86.224 L435.744,86.224 L434.352,90.512 C434.144,91.2 433.92,92 433.712,92.704 L433.648,92.704 C433.392,91.984 433.136,91.184 432.88,90.512 L431.312,86.224 L429.936,86.224 L433.056,94.016 L432.88,94.592 C432.56,95.552 432,96.24 431.136,96.24 C430.944,96.24 430.752,96.208 430.56,96.144 L430.272,97.184 C430.528,97.28 430.832,97.344 431.2,97.344 Z M443.952,94.192 C445.632,94.192 447.088,93.296 447.088,91.856 C447.088,90.736 446.384,90.16 445.472,89.92 L445.472,89.856 C446.288,89.536 446.768,88.88 446.768,88.128 C446.768,86.704 445.456,86.032 443.936,86.032 C442.8,86.032 441.952,86.368 441.2,86.896 L441.76,87.76 C442.384,87.312 442.976,87.072 443.872,87.072 C444.816,87.072 445.488,87.456 445.488,88.256 C445.488,88.992 444.864,89.456 443.616,89.456 L442.72,89.456 L442.72,90.464 L443.792,90.464 C445.088,90.464 445.792,90.896 445.792,91.744 C445.792,92.608 444.928,93.152 443.856,93.152 C443.072,93.152 442.304,92.944 441.584,92.352 L441.024,93.2 C441.936,93.952 442.88,94.192 443.952,94.192 Z M450.832,94.192 C451.808,94.192 452.656,93.696 453.392,93.072 L453.44,93.072 L453.568,94 L454.656,94 L454.656,89.216 C454.656,87.296 453.84,86.032 451.952,86.032 C450.704,86.032 449.616,86.56 448.896,87.04 L449.408,87.936 C450.016,87.536 450.832,87.136 451.728,87.136 C452.992,87.136 453.312,88.08 453.328,89.056 C450,89.424 448.56,90.256 448.56,91.984 C448.56,93.392 449.536,94.192 450.832,94.192 Z M451.2,93.104 C450.448,93.104 449.856,92.768 449.856,91.904 C449.856,90.896 450.704,90.304 453.328,90 L453.328,92.112 C452.576,92.768 451.952,93.104 451.2,93.104 Z M458.448,94 L458.448,87.296 L462.016,87.296 L462.016,94 L463.344,94 L463.344,86.224 L457.12,86.224 L457.12,94 L458.448,94 Z M468.992,94.192 C470.896,94.192 472.608,92.704 472.608,90.128 C472.608,87.52 470.896,86.032 468.992,86.032 C467.088,86.032 465.392,87.52 465.392,90.128 C465.392,92.704 467.088,94.192 468.992,94.192 Z M468.992,93.088 C467.664,93.088 466.768,91.904 466.768,90.128 C466.768,88.336 467.664,87.136 468.992,87.136 C470.336,87.136 471.232,88.336 471.232,90.128 C471.232,91.904 470.336,93.088 468.992,93.088 Z M474.208,94.144 C475.344,94.144 476.048,93.296 476.272,91.6 C476.448,90.176 476.608,88.736 476.784,87.296 L479.184,87.296 L479.184,94 L480.512,94 L480.512,86.224 L475.728,86.224 C475.536,87.904 475.344,89.584 475.136,91.264 C474.992,92.368 474.64,92.864 474.096,92.864 C473.952,92.864 473.84,92.832 473.744,92.8 L473.488,94.016 C473.712,94.112 473.904,94.144 474.208,94.144 Z M484.464,94 L484.464,90.544 L488.192,90.544 L488.192,94 L489.52,94 L489.52,86.224 L488.192,86.224 L488.192,89.376 L484.464,89.376 L484.464,86.224 L483.136,86.224 L483.136,94 L484.464,94 Z M495.264,94.192 C496.336,94.192 497.168,93.872 497.84,93.392 L497.376,92.544 C496.832,92.912 496.176,93.12 495.424,93.12 C493.952,93.12 492.976,92.064 492.864,90.464 L498.096,90.464 C498.144,90.208 498.16,89.968 498.16,89.68 C498.16,87.44 497.024,86.032 495.04,86.032 C493.264,86.032 491.552,87.584 491.552,90.112 C491.552,92.688 493.184,94.192 495.264,94.192 Z M496.976,89.44 L492.864,89.44 C493.024,87.952 493.984,87.088 495.072,87.088 C496.256,87.088 496.976,87.904 496.976,89.44 Z M501.392,94 L501.392,90.544 L505.12,90.544 L505.12,94 L506.448,94 L506.448,86.224 L505.12,86.224 L505.12,89.376 L501.392,89.376 L501.392,86.224 L500.064,86.224 L500.064,94 L501.392,94 Z M510.48,94 L513.248,89.616 C513.552,89.136 513.952,88.432 514.256,87.84 L514.32,87.84 C514.24,88.96 514.192,89.92 514.192,90.752 L514.192,94 L515.456,94 L515.456,86.224 L514.048,86.224 L511.264,90.624 C510.96,91.104 510.56,91.824 510.256,92.384 L510.192,92.384 C510.272,91.28 510.336,90.304 510.336,89.472 L510.336,86.224 L509.056,86.224 L509.056,94 L510.48,94 Z M518.752,94 L520.896,90.944 L522.368,90.944 L522.368,94 L523.664,94 L523.664,86.224 L520.928,86.224 C519.184,86.224 517.872,86.816 517.872,88.512 C517.872,89.76 518.64,90.464 519.648,90.768 L517.28,94 L518.752,94 Z M522.368,89.936 L521.152,89.936 C519.92,89.936 519.184,89.456 519.184,88.528 C519.184,87.648 519.92,87.264 521.152,87.264 L522.368,87.264 L522.368,89.936 Z M530.832,94 L530.832,87.296 L534.4,87.296 L534.4,94 L535.728,94 L535.728,86.224 L529.504,86.224 L529.504,94 L530.832,94 Z M539.68,97.28 L539.68,94.656 L539.648,93.296 C540.352,93.856 541.088,94.192 541.792,94.192 C543.568,94.192 545.168,92.64 545.168,90 C545.168,87.584 544.08,86.032 542.08,86.032 C541.184,86.032 540.304,86.528 539.6,87.12 L539.552,87.12 L539.44,86.224 L538.352,86.224 L538.352,97.28 L539.68,97.28 Z M541.568,93.072 C541.056,93.072 540.384,92.864 539.68,92.272 L539.68,88.208 C540.432,87.504 541.088,87.152 541.744,87.152 C543.2,87.152 543.792,88.288 543.792,90 C543.792,91.92 542.848,93.072 541.568,93.072 Z M550.256,94.192 C552.16,94.192 553.872,92.704 553.872,90.128 C553.872,87.52 552.16,86.032 550.256,86.032 C548.352,86.032 546.656,87.52 546.656,90.128 C546.656,92.704 548.352,94.192 550.256,94.192 Z M550.256,93.088 C548.928,93.088 548.032,91.904 548.032,90.128 C548.032,88.336 548.928,87.136 550.256,87.136 C551.6,87.136 552.496,88.336 552.496,90.128 C552.496,91.904 551.6,93.088 550.256,93.088 Z M557.232,94 L557.232,87.296 L560.8,87.296 L560.8,94 L562.128,94 L562.128,86.224 L555.904,86.224 L555.904,94 L557.232,94 Z M564.896,97.344 C566.448,97.344 567.264,96.176 567.808,94.64 L570.736,86.224 L569.44,86.224 L568.048,90.512 C567.84,91.2 567.616,92 567.408,92.704 L567.344,92.704 C567.088,91.984 566.832,91.184 566.576,90.512 L565.008,86.224 L563.632,86.224 L566.752,94.016 L566.576,94.592 C566.256,95.552 565.696,96.24 564.832,96.24 C564.64,96.24 564.448,96.208 564.256,96.144 L563.968,97.184 C564.224,97.28 564.528,97.344 564.896,97.344 Z M575.248,94.192 C576.176,94.192 577.056,93.84 577.76,93.2 L577.184,92.352 C576.72,92.768 576.08,93.088 575.36,93.088 C573.936,93.088 572.976,91.904 572.976,90.128 C572.976,88.336 574,87.136 575.408,87.136 C576.032,87.136 576.528,87.376 576.96,87.776 L577.616,86.944 C577.072,86.432 576.368,86.032 575.344,86.032 C573.344,86.032 571.6,87.52 571.6,90.128 C571.6,92.704 573.184,94.192 575.248,94.192 Z M580.784,94 L580.784,90.496 L582.464,90.496 L584.496,94 L585.936,94 L583.44,89.904 L584.096,88.384 C584.496,87.488 584.816,87.36 585.216,87.36 C585.328,87.36 585.376,87.376 585.472,87.408 L585.712,86.16 C585.584,86.096 585.424,86.064 585.248,86.064 C584.4,86.064 583.808,86.32 583.184,87.696 L582.416,89.424 L580.784,89.424 L580.784,86.224 L579.472,86.224 L579.472,94 L580.784,94 Z M590.144,94.192 C592.048,94.192 593.76,92.704 593.76,90.128 C593.76,87.52 592.048,86.032 590.144,86.032 C588.24,86.032 586.544,87.52 586.544,90.128 C586.544,92.704 588.24,94.192 590.144,94.192 Z M590.144,93.088 C588.816,93.088 587.92,91.904 587.92,90.128 C587.92,88.336 588.816,87.136 590.144,87.136 C591.488,87.136 592.384,88.336 592.384,90.128 C592.384,91.904 591.488,93.088 590.144,93.088 Z M598.896,94 C600.704,94 601.968,93.312 601.968,91.776 C601.968,90.656 601.216,90.112 600.352,89.92 L600.352,89.856 C601.152,89.616 601.648,89.056 601.648,88.192 C601.648,86.784 600.48,86.224 598.784,86.224 L595.792,86.224 L595.792,94 L598.896,94 Z M598.56,89.456 L597.072,89.456 L597.072,87.2 L598.64,87.2 C599.856,87.2 600.368,87.616 600.368,88.32 C600.368,89.024 599.856,89.456 598.56,89.456 Z M598.768,93.008 L597.072,93.008 L597.072,90.464 L598.672,90.464 C600,90.464 600.688,90.928 600.688,91.696 C600.688,92.528 600.064,93.008 598.768,93.008 Z M400.384,116.192 C401.312,116.192 402.192,115.84 402.896,115.2 L402.32,114.352 C401.856,114.768 401.216,115.088 400.496,115.088 C399.072,115.088 398.112,113.904 398.112,112.128 C398.112,110.336 399.136,109.136 400.544,109.136 C401.168,109.136 401.664,109.376 402.096,109.776 L402.752,108.944 C402.208,108.432 401.504,108.032 400.48,108.032 C398.48,108.032 396.736,109.52 396.736,112.128 C396.736,114.704 398.32,116.192 400.384,116.192 Z M405.936,119.28 L405.936,116.656 L405.904,115.296 C406.608,115.856 407.344,116.192 408.048,116.192 C409.824,116.192 411.424,114.64 411.424,112 C411.424,109.584 410.336,108.032 408.336,108.032 C407.44,108.032 406.56,108.528 405.856,109.12 L405.808,109.12 L405.696,108.224 L404.608,108.224 L404.608,119.28 L405.936,119.28 Z M407.824,115.072 C407.312,115.072 406.64,114.864 405.936,114.272 L405.936,110.208 C406.688,109.504 407.344,109.152 408,109.152 C409.456,109.152 410.048,110.288 410.048,112 C410.048,113.92 409.104,115.072 407.824,115.072 Z M416.624,116.192 C417.696,116.192 418.528,115.872 419.2,115.392 L418.736,114.544 C418.192,114.912 417.536,115.12 416.784,115.12 C415.312,115.12 414.336,114.064 414.224,112.464 L419.456,112.464 C419.504,112.208 419.52,111.968 419.52,111.68 C419.52,109.44 418.384,108.032 416.4,108.032 C414.624,108.032 412.912,109.584 412.912,112.112 C412.912,114.688 414.544,116.192 416.624,116.192 Z M418.336,111.44 L414.224,111.44 C414.384,109.952 415.344,109.088 416.432,109.088 C417.616,109.088 418.336,109.904 418.336,111.44 Z M421.696,118.752 L421.696,116 L427.008,116 L427.008,118.752 L428.144,118.752 L428.288,115.76 L428.288,114.912 L427.152,114.912 L427.152,108.224 L422.304,108.224 L421.888,111.664 C421.584,114.16 421.232,114.688 420.8,114.912 L420.416,114.912 L420.416,115.76 L420.56,118.752 L421.696,118.752 Z M425.824,114.912 L422.224,114.912 C422.576,114.352 422.88,113.44 423.056,111.92 L423.36,109.296 L425.824,109.296 L425.824,114.912 Z M431.28,116 L431.28,112.544 L435.008,112.544 L435.008,116 L436.336,116 L436.336,108.224 L435.008,108.224 L435.008,111.376 L431.28,111.376 L431.28,108.224 L429.952,108.224 L429.952,116 L431.28,116 Z M440.368,116 L443.136,111.616 C443.44,111.136 443.84,110.432 444.144,109.84 L444.208,109.84 C444.128,110.96 444.08,111.92 444.08,112.752 L444.08,116 L445.344,116 L445.344,108.224 L443.936,108.224 L441.152,112.624 C440.848,113.104 440.448,113.824 440.144,114.384 L440.08,114.384 C440.16,113.28 440.224,112.304 440.224,111.472 L440.224,108.224 L438.944,108.224 L438.944,116 L440.368,116 Z M449.152,116 L449.152,112.48 C449.152,111.792 449.088,110.608 449.008,109.792 L449.072,109.792 C449.296,110.432 449.552,111.104 449.776,111.712 L451.232,115.264 L452.224,115.264 L453.664,111.712 C453.888,111.104 454.128,110.432 454.352,109.792 L454.416,109.792 C454.352,110.608 454.272,111.792 454.272,112.48 L454.272,116 L455.472,116 L455.472,108.224 L453.888,108.224 L452.432,111.856 C452.224,112.432 452,113.072 451.776,113.776 L451.712,113.776 C451.52,113.072 451.28,112.432 451.056,111.856 L449.536,108.224 L447.968,108.224 L447.968,116 L449.152,116 Z M463.504,116.192 C465.184,116.192 466.64,115.296 466.64,113.856 C466.64,112.736 465.936,112.16 465.024,111.92 L465.024,111.856 C465.84,111.536 466.32,110.88 466.32,110.128 C466.32,108.704 465.008,108.032 463.488,108.032 C462.352,108.032 461.504,108.368 460.752,108.896 L461.312,109.76 C461.936,109.312 462.528,109.072 463.424,109.072 C464.368,109.072 465.04,109.456 465.04,110.256 C465.04,110.992 464.416,111.456 463.168,111.456 L462.272,111.456 L462.272,112.464 L463.344,112.464 C464.64,112.464 465.344,112.896 465.344,113.744 C465.344,114.608 464.48,115.152 463.408,115.152 C462.624,115.152 461.856,114.944 461.136,114.352 L460.576,115.2 C461.488,115.952 462.432,116.192 463.504,116.192 Z M469.92,116 L469.92,112.544 L473.648,112.544 L473.648,116 L474.976,116 L474.976,108.224 L473.648,108.224 L473.648,111.376 L469.92,111.376 L469.92,108.224 L468.592,108.224 L468.592,116 L469.92,116 Z M479.376,116.192 C480.352,116.192 481.2,115.696 481.936,115.072 L481.984,115.072 L482.112,116 L483.2,116 L483.2,111.216 C483.2,109.296 482.384,108.032 480.496,108.032 C479.248,108.032 478.16,108.56 477.44,109.04 L477.952,109.936 C478.56,109.536 479.376,109.136 480.272,109.136 C481.536,109.136 481.856,110.08 481.872,111.056 C478.544,111.424 477.104,112.256 477.104,113.984 C477.104,115.392 478.08,116.192 479.376,116.192 Z M479.744,115.104 C478.992,115.104 478.4,114.768 478.4,113.904 C478.4,112.896 479.248,112.304 481.872,112 L481.872,114.112 C481.12,114.768 480.496,115.104 479.744,115.104 Z M491.248,116 L491.248,108.224 L489.92,108.224 L489.92,111.84 C489.472,111.936 489.12,111.984 488.656,111.984 C487.248,111.984 486.624,111.504 486.624,110.352 L486.624,108.224 L485.296,108.224 L485.296,110.352 C485.296,112.288 486.432,113.072 488.4,113.072 C489.088,113.072 489.376,113.008 489.92,112.912 L489.92,116 L491.248,116 Z M497.008,116.192 C498.08,116.192 498.912,115.872 499.584,115.392 L499.12,114.544 C498.576,114.912 497.92,115.12 497.168,115.12 C495.696,115.12 494.72,114.064 494.608,112.464 L499.84,112.464 C499.888,112.208 499.904,111.968 499.904,111.68 C499.904,109.44 498.768,108.032 496.784,108.032 C495.008,108.032 493.296,109.584 493.296,112.112 C493.296,114.688 494.928,116.192 497.008,116.192 Z M498.72,111.44 L494.608,111.44 C494.768,109.952 495.728,109.088 496.816,109.088 C498,109.088 498.72,109.904 498.72,111.44 Z M503.136,116 L503.136,112.544 L506.864,112.544 L506.864,116 L508.192,116 L508.192,108.224 L506.864,108.224 L506.864,111.376 L503.136,111.376 L503.136,108.224 L501.808,108.224 L501.808,116 L503.136,116 Z M512.224,116 L514.992,111.616 C515.296,111.136 515.696,110.432 516,109.84 L516.064,109.84 C515.984,110.96 515.936,111.92 515.936,112.752 L515.936,116 L517.2,116 L517.2,108.224 L515.792,108.224 L513.008,112.624 C512.704,113.104 512.304,113.824 512,114.384 L511.936,114.384 C512.016,113.28 512.08,112.304 512.08,111.472 L512.08,108.224 L510.8,108.224 L510.8,116 L512.224,116 Z M522.96,116.192 C524.032,116.192 524.864,115.872 525.536,115.392 L525.072,114.544 C524.528,114.912 523.872,115.12 523.12,115.12 C521.648,115.12 520.672,114.064 520.56,112.464 L525.792,112.464 C525.84,112.208 525.856,111.968 525.856,111.68 C525.856,109.44 524.72,108.032 522.736,108.032 C520.96,108.032 519.248,109.584 519.248,112.112 C519.248,114.688 520.88,116.192 522.96,116.192 Z M524.672,111.44 L520.56,111.44 C520.72,109.952 521.68,109.088 522.768,109.088 C523.952,109.088 524.672,109.904 524.672,111.44 Z M528.944,116 L528.944,112.48 C528.944,111.792 528.88,110.608 528.8,109.792 L528.864,109.792 C529.088,110.432 529.344,111.104 529.568,111.712 L531.024,115.264 L532.016,115.264 L533.456,111.712 C533.68,111.104 533.92,110.432 534.144,109.792 L534.208,109.792 C534.144,110.608 534.064,111.792 534.064,112.48 L534.064,116 L535.264,116 L535.264,108.224 L533.68,108.224 L532.224,111.856 C532.016,112.432 531.792,113.072 531.568,113.776 L531.504,113.776 C531.312,113.072 531.072,112.432 530.848,111.856 L529.328,108.224 L527.76,108.224 L527.76,116 L528.944,116 Z" id="Искажениераспределенияввидузаполненияпропусковсреднимзначением" fill="#333333" fill-rule="nonzero"></path>
        <g id="arrow-pointer-copy" transform="translate(348.294679, 132.121320) rotate(-225.000000) translate(-348.294679, -132.121320) translate(299.794679, 126.121320)">
            <polygon id="Rectangle" fill="#9A9FAF" transform="translate(91.000000, 6.000000) rotate(-45.000000) translate(-91.000000, -6.000000) " points="95 2 95 10 87 10"></polygon>
            <line x1="0" y1="6" x2="92.8571429" y2="6" id="Path-40" stroke="#9A9FAF" stroke-width="2" stroke-linecap="round" stroke-linejoin="round" stroke-dasharray="0,5"></line>
        </g>
        <line x1="307" y1="225.5" x2="307" y2="170.5" id="Line" stroke="#F7931E" stroke-width="2"></line>
    </g>
</svg>