<?xml version="1.0" encoding="UTF-8"?>
<svg width="792px" height="357px" viewBox="0 0 792 357" version="1.1" xmlns="http://www.w3.org/2000/svg" xmlns:xlink="http://www.w3.org/1999/xlink">
    <!-- Generator: Sketch 63.1 (92452) - https://sketch.com -->
    <title>distortion-categorical</title>
    <desc>Created with Sketch.</desc>
    <g id="distortion-categorical" stroke="none" stroke-width="1" fill="none" fill-rule="evenodd">
        <rect fill="#FFFFFF" x="0" y="0" width="792" height="357"></rect>
        <g id="axis/General-Copy" transform="translate(-538.000000, 36.000000)">
            <g id="axis/label-x" transform="translate(1137.000000, 244.000000)" font-family="SourceSansPro-Regular, Source Sans Pro" font-size="16" font-weight="normal">
                <text id="x"></text>
            </g>
            <path id="Path-6" d="M707,4 L714,18 L708,18 L708,255 L1113,255 L1113,249 L1127,256 L1113,263 L1113,257 L706,257 L706,18 L700,18 L707,4 Z" fill="#636F80" fill-rule="nonzero"></path>
            <g id="axis/label-y" font-family="SourceSansPro-Regular, Source Sans Pro" font-size="16" font-weight="normal">
                <text id="y"></text>
            </g>
        </g>
        <g id="axis/_Label/label-x-scale" transform="translate(241.000000, 293.000000)">
            <path d="M7.048,24 L7.048,22.896 L4.952,22.896 L4.952,13.792 L3.928,13.792 C3.368,14.128 2.696,14.384 1.752,14.544 L1.752,15.408 L3.624,15.408 L3.624,22.896 L1.288,22.896 L1.288,24 L7.048,24 Z" id="1" fill="#333333" fill-rule="nonzero"></path>
            <line x1="4" y1="0" x2="4" y2="8" id="Path-7" stroke="#636F80" stroke-width="2"></line>
        </g>
        <line x1="169" y1="293" x2="169" y2="301" id="Path-7" stroke="#636F80" stroke-width="2"></line>
        <g id="axis/_Label/label-x-scale-Copy" transform="translate(317.000000, 293.000000)">
            <path d="M7.256,24 L7.256,22.864 L4.2,22.864 C3.672,22.864 3.048,22.896 2.488,22.944 C4.968,20.416 6.76,18.576 6.76,16.592 C6.76,14.8 5.576,13.6 3.688,13.6 C2.376,13.6 1.464,14.224 0.616,15.184 L1.368,15.904 C1.944,15.232 2.68,14.688 3.528,14.688 C4.824,14.688 5.464,15.504 5.464,16.672 C5.464,18.32 3.704,20.208 0.664,23.184 L0.664,24 L7.256,24 Z" id="2" fill="#333333" fill-rule="nonzero"></path>
            <line x1="4" y1="0" x2="4" y2="8" id="Path-7" stroke="#636F80" stroke-width="2"></line>
        </g>
        <g id="axis/_Label/label-x-scale-Copy-2" transform="translate(393.000000, 293.000000)">
            <path d="M3.8,24.192 C5.672,24.192 7.176,23.088 7.176,21.28 C7.176,19.872 6.2,18.976 4.968,18.688 L4.968,18.624 C6.072,18.208 6.808,17.424 6.808,16.192 C6.808,14.544 5.528,13.6 3.752,13.6 C2.552,13.6 1.608,14.144 0.824,14.88 L1.528,15.712 C2.136,15.12 2.856,14.688 3.704,14.688 C4.792,14.688 5.464,15.312 5.464,16.288 C5.464,17.36 4.728,18.192 2.568,18.192 L2.568,19.2 C5,19.2 5.832,20.016 5.832,21.232 C5.832,22.368 4.952,23.088 3.72,23.088 C2.52,23.088 1.72,22.528 1.112,21.888 L0.44,22.752 C1.128,23.504 2.168,24.192 3.8,24.192 Z" id="3" fill="#333333" fill-rule="nonzero"></path>
            <line x1="4" y1="0" x2="4" y2="8" id="Path-7" stroke="#636F80" stroke-width="2"></line>
        </g>
        <g id="axis/_Label/label-x-scale-Copy-3" transform="translate(469.000000, 293.000000)">
            <path d="M6.136,24 L6.136,21.184 L7.528,21.184 L7.528,20.128 L6.136,20.128 L6.136,13.792 L4.664,13.792 L0.296,20.304 L0.296,21.184 L4.888,21.184 L4.888,24 L6.136,24 Z M4.888,20.128 L1.688,20.128 L4.072,16.656 C4.36,16.144 4.648,15.696 4.904,15.216 L4.968,15.216 C4.936,15.76 4.888,16.64 4.888,17.168 L4.888,20.128 Z" id="4" fill="#333333" fill-rule="nonzero"></path>
            <line x1="4" y1="0" x2="4" y2="8" id="Path-7" stroke="#636F80" stroke-width="2"></line>
        </g>
        <path d="M600.456,297.192 C601.304,297.192 601.672,296.68 601.672,295.624 L601.672,293.08 C601.672,291.528 601.672,290.344 601.512,288.312 L601.576,288.312 C601.88,289.144 602.168,289.912 602.472,290.616 L605.24,297 L606.776,297 L606.776,288.344 C606.776,287.832 606.952,287.688 607.32,287.688 L607.208,286.664 C607.048,286.616 607,286.6 606.808,286.6 C605.96,286.6 605.592,287.128 605.592,288.168 L605.592466,291.368233 C605.595265,292.619592 605.614857,293.738286 605.752,295.48 L605.688,295.48 C605.4,294.648 605.096,293.88 604.792,293.192 L602.04,286.792 L600.488,286.792 L600.488,295.448 C600.488,295.96 600.312,296.104 599.944,296.104 L600.056,297.144 C600.216,297.176 600.28,297.192 600.456,297.192 Z M610.6,292.584 C611.944,292.584 613.064,291.64 613.064,290.008 C613.064,288.36 611.944,287.432 610.6,287.432 C609.256,287.432 608.136,288.36 608.136,290.008 C608.136,291.64 609.256,292.584 610.6,292.584 Z M610.6,291.72 C609.768,291.72 609.224,291.08 609.224,290.008 C609.224,288.92 609.768,288.296 610.6,288.296 C611.432,288.296 611.976,288.92 611.976,290.008 C611.976,291.08 611.432,291.72 610.6,291.72 Z M612.616,294.664 L612.616,293.736 L608.584,293.736 L608.584,294.664 L612.616,294.664 Z" id="№" fill="#333333" fill-rule="nonzero"></path>
        <path d="M103.432,56 L103.432,45.504 L102.072,45.504 L102.072,50.496 C101.624,50.592 101.032,50.672 100.2,50.672 C98.568,50.672 97.688,50.112 97.688,48.352 L97.688,45.504 L96.36,45.504 L96.36,48.352 C96.36,50.88 97.656,51.776 100.072,51.776 C100.952,51.776 101.544,51.68 102.072,51.6 L102.072,56 L103.432,56 Z M107.96,56.192 C108.936,56.192 109.784,55.696 110.52,55.072 L110.568,55.072 L110.696,56 L111.784,56 L111.784,51.216 C111.784,49.296 110.968,48.032 109.08,48.032 C107.832,48.032 106.744,48.56 106.024,49.04 L106.536,49.936 C107.144,49.536 107.96,49.136 108.856,49.136 C110.12,49.136 110.44,50.08 110.456,51.056 C107.128,51.424 105.688,52.256 105.688,53.984 C105.688,55.392 106.664,56.192 107.96,56.192 Z M108.328,55.104 C107.576,55.104 106.984,54.768 106.984,53.904 C106.984,52.896 107.832,52.304 110.456,52 L110.456,54.112 C109.704,54.768 109.08,55.104 108.328,55.104 Z M117.32,56.192 C118.248,56.192 119.128,55.84 119.832,55.2 L119.256,54.352 C118.792,54.768 118.152,55.088 117.432,55.088 C116.008,55.088 115.048,53.904 115.048,52.128 C115.048,50.336 116.072,49.136 117.48,49.136 C118.104,49.136 118.6,49.376 119.032,49.776 L119.688,48.944 C119.144,48.432 118.44,48.032 117.416,48.032 C115.416,48.032 113.672,49.52 113.672,52.128 C113.672,54.704 115.256,56.192 117.32,56.192 Z M124.424,56 L124.424,49.296 L127.016,49.296 L127.016,48.224 L120.488,48.224 L120.488,49.296 L123.096,49.296 L123.096,56 L124.424,56 Z M131.544,56.192 C133.448,56.192 135.16,54.704 135.16,52.128 C135.16,49.52 133.448,48.032 131.544,48.032 C129.64,48.032 127.944,49.52 127.944,52.128 C127.944,54.704 129.64,56.192 131.544,56.192 Z M131.544,55.088 C130.216,55.088 129.32,53.904 129.32,52.128 C129.32,50.336 130.216,49.136 131.544,49.136 C132.888,49.136 133.784,50.336 133.784,52.128 C133.784,53.904 132.888,55.088 131.544,55.088 Z M139.96,56 L139.96,49.296 L142.552,49.296 L142.552,48.224 L136.024,48.224 L136.024,49.296 L138.632,49.296 L138.632,56 L139.96,56 Z M145.736,56.192 C146.712,56.192 147.56,55.696 148.296,55.072 L148.344,55.072 L148.472,56 L149.56,56 L149.56,51.216 C149.56,49.296 148.744,48.032 146.856,48.032 C145.608,48.032 144.52,48.56 143.8,49.04 L144.312,49.936 C144.92,49.536 145.736,49.136 146.632,49.136 C147.896,49.136 148.216,50.08 148.232,51.056 C144.904,51.424 143.464,52.256 143.464,53.984 C143.464,55.392 144.44,56.192 145.736,56.192 Z M146.104,55.104 C145.352,55.104 144.76,54.768 144.76,53.904 C144.76,52.896 145.608,52.304 148.232,52 L148.232,54.112 C147.48,54.768 146.856,55.104 146.104,55.104 Z" id="Частота" fill="#333333" fill-rule="nonzero"></path>
        <path d="M420.896,102 L424.72,95.408 L425.856,93.2 L425.92,93.2 C425.84,94.256 425.744,95.408 425.744,96.496 L425.744,102 L427.072,102 L427.056,91.504 L425.6,91.504 L421.776,98.096 L420.64,100.304 L420.576,100.304 C420.656,99.232 420.752,98.048 420.752,96.96 L420.752,91.504 L419.44,91.504 L419.44,102 L420.896,102 Z M432.88,102.192 C433.808,102.192 434.688,101.84 435.392,101.2 L434.816,100.352 C434.352,100.768 433.712,101.088 432.992,101.088 C431.568,101.088 430.608,99.904 430.608,98.128 C430.608,96.336 431.632,95.136 433.04,95.136 C433.664,95.136 434.16,95.376 434.592,95.776 L435.248,94.944 C434.704,94.432 434,94.032 432.976,94.032 C430.976,94.032 429.232,95.52 429.232,98.128 C429.232,100.704 430.816,102.192 432.88,102.192 Z M438.416,102 L438.416,98.496 L440.096,98.496 L442.128,102 L443.568,102 L441.072,97.904 L441.728,96.384 C442.128,95.488 442.448,95.36 442.848,95.36 C442.96,95.36 443.008,95.376 443.104,95.408 L443.344,94.16 C443.216,94.096 443.056,94.064 442.88,94.064 C442.032,94.064 441.44,94.32 440.816,95.696 L440.048,97.424 L438.416,97.424 L438.416,94.224 L437.104,94.224 L437.104,102 L438.416,102 Z M446.656,102.192 C447.632,102.192 448.48,101.696 449.216,101.072 L449.264,101.072 L449.392,102 L450.48,102 L450.48,97.216 C450.48,95.296 449.664,94.032 447.776,94.032 C446.528,94.032 445.44,94.56 444.72,95.04 L445.232,95.936 C445.84,95.536 446.656,95.136 447.552,95.136 C448.816,95.136 449.136,96.08 449.152,97.056 C445.824,97.424 444.384,98.256 444.384,99.984 C444.384,101.392 445.36,102.192 446.656,102.192 Z M447.024,101.104 C446.272,101.104 445.68,100.768 445.68,99.904 C445.68,98.896 446.528,98.304 449.152,98 L449.152,100.112 C448.4,100.768 447.776,101.104 447.024,101.104 Z M453.28,102 L455.136,98.496 L456.544,98.496 L456.544,102 L457.744,102 L457.744,98.496 L459.152,98.496 L461.008,102 L462.464,102 L460.096,97.92 L460.704,96.384 C461.056,95.536 461.392,95.36 461.76,95.36 C461.872,95.36 461.936,95.376 462.032,95.408 L462.256,94.16 C462.144,94.096 461.968,94.064 461.792,94.064 C460.976,94.064 460.352,94.432 459.808,95.696 L459.104,97.424 L457.744,97.424 L457.744,94.224 L456.544,94.224 L456.544,97.424 L455.2,97.424 L454.48,95.696 C453.952,94.432 453.312,94.064 452.496,94.064 C452.336,94.064 452.16,94.096 452.032,94.16 L452.272,95.408 C452.368,95.376 452.416,95.36 452.528,95.36 C452.912,95.36 453.248,95.536 453.584,96.384 L454.208,97.92 L451.84,102 L453.28,102 Z M466.832,102.192 C467.904,102.192 468.736,101.872 469.408,101.392 L468.944,100.544 C468.4,100.912 467.744,101.12 466.992,101.12 C465.52,101.12 464.544,100.064 464.432,98.464 L469.664,98.464 C469.712,98.208 469.728,97.968 469.728,97.68 C469.728,95.44 468.592,94.032 466.608,94.032 C464.832,94.032 463.12,95.584 463.12,98.112 C463.12,100.688 464.752,102.192 466.832,102.192 Z M468.544,97.44 L464.432,97.44 C464.592,95.952 465.552,95.088 466.64,95.088 C467.824,95.088 468.544,95.904 468.544,97.44 Z M472.96,102 L472.96,98.544 L476.688,98.544 L476.688,102 L478.016,102 L478.016,94.224 L476.688,94.224 L476.688,97.376 L472.96,97.376 L472.96,94.224 L471.632,94.224 L471.632,102 L472.96,102 Z M482.048,102 L484.816,97.616 C485.12,97.136 485.52,96.432 485.824,95.84 L485.888,95.84 C485.808,96.96 485.76,97.92 485.76,98.752 L485.76,102 L487.024,102 L487.024,94.224 L485.616,94.224 L482.832,98.624 C482.528,99.104 482.128,99.824 481.824,100.384 L481.76,100.384 C481.84,99.28 481.904,98.304 481.904,97.472 L481.904,94.224 L480.624,94.224 L480.624,102 L482.048,102 Z M492.784,102.192 C493.856,102.192 494.688,101.872 495.36,101.392 L494.896,100.544 C494.352,100.912 493.696,101.12 492.944,101.12 C491.472,101.12 490.496,100.064 490.384,98.464 L495.616,98.464 C495.664,98.208 495.68,97.968 495.68,97.68 C495.68,95.44 494.544,94.032 492.56,94.032 C490.784,94.032 489.072,95.584 489.072,98.112 C489.072,100.688 490.704,102.192 492.784,102.192 Z M494.496,97.44 L490.384,97.44 C490.544,95.952 491.504,95.088 492.592,95.088 C493.776,95.088 494.496,95.904 494.496,97.44 Z M502.112,105.28 L502.112,102.656 L502.08,101.296 C502.784,101.856 503.52,102.192 504.224,102.192 C506,102.192 507.6,100.64 507.6,98 C507.6,95.584 506.512,94.032 504.512,94.032 C503.616,94.032 502.736,94.528 502.032,95.12 L501.984,95.12 L501.872,94.224 L500.784,94.224 L500.784,105.28 L502.112,105.28 Z M504,101.072 C503.488,101.072 502.816,100.864 502.112,100.272 L502.112,96.208 C502.864,95.504 503.52,95.152 504.176,95.152 C505.632,95.152 506.224,96.288 506.224,98 C506.224,99.92 505.28,101.072 504,101.072 Z M511.232,102.192 C512.208,102.192 513.056,101.696 513.792,101.072 L513.84,101.072 L513.968,102 L515.056,102 L515.056,97.216 C515.056,95.296 514.24,94.032 512.352,94.032 C511.104,94.032 510.016,94.56 509.296,95.04 L509.808,95.936 C510.416,95.536 511.232,95.136 512.128,95.136 C513.392,95.136 513.712,96.08 513.728,97.056 C510.4,97.424 508.96,98.256 508.96,99.984 C508.96,101.392 509.936,102.192 511.232,102.192 Z M511.6,101.104 C510.848,101.104 510.256,100.768 510.256,99.904 C510.256,98.896 511.104,98.304 513.728,98 L513.728,100.112 C512.976,100.768 512.352,101.104 511.6,101.104 Z M520.592,102.192 C521.52,102.192 522.4,101.84 523.104,101.2 L522.528,100.352 C522.064,100.768 521.424,101.088 520.704,101.088 C519.28,101.088 518.32,99.904 518.32,98.128 C518.32,96.336 519.344,95.136 520.752,95.136 C521.376,95.136 521.872,95.376 522.304,95.776 L522.96,94.944 C522.416,94.432 521.712,94.032 520.688,94.032 C518.688,94.032 516.944,95.52 516.944,98.128 C516.944,100.704 518.528,102.192 520.592,102.192 Z M526.144,102 L526.144,95.296 L529.712,95.296 L529.712,102 L531.04,102 L531.04,94.224 L524.816,94.224 L524.816,102 L526.144,102 Z M534.992,105.28 L534.992,102.656 L534.96,101.296 C535.664,101.856 536.4,102.192 537.104,102.192 C538.88,102.192 540.48,100.64 540.48,98 C540.48,95.584 539.392,94.032 537.392,94.032 C536.496,94.032 535.616,94.528 534.912,95.12 L534.864,95.12 L534.752,94.224 L533.664,94.224 L533.664,105.28 L534.992,105.28 Z M536.88,101.072 C536.368,101.072 535.696,100.864 534.992,100.272 L534.992,96.208 C535.744,95.504 536.4,95.152 537.056,95.152 C538.512,95.152 539.104,96.288 539.104,98 C539.104,99.92 538.16,101.072 536.88,101.072 Z M545.68,102.192 C546.752,102.192 547.584,101.872 548.256,101.392 L547.792,100.544 C547.248,100.912 546.592,101.12 545.84,101.12 C544.368,101.12 543.392,100.064 543.28,98.464 L548.512,98.464 C548.56,98.208 548.576,97.968 548.576,97.68 C548.576,95.44 547.44,94.032 545.456,94.032 C543.68,94.032 541.968,95.584 541.968,98.112 C541.968,100.688 543.6,102.192 545.68,102.192 Z M547.392,97.44 L543.28,97.44 C543.44,95.952 544.4,95.088 545.488,95.088 C546.672,95.088 547.392,95.904 547.392,97.44 Z M550.752,104.752 L550.752,102 L556.064,102 L556.064,104.752 L557.2,104.752 L557.344,101.76 L557.344,100.912 L556.208,100.912 L556.208,94.224 L551.36,94.224 L550.944,97.664 C550.64,100.16 550.288,100.688 549.856,100.912 L549.472,100.912 L549.472,101.76 L549.616,104.752 L550.752,104.752 Z M554.88,100.912 L551.28,100.912 C551.632,100.352 551.936,99.44 552.112,97.92 L552.416,95.296 L554.88,95.296 L554.88,100.912 Z M562.144,102.192 C563.216,102.192 564.048,101.872 564.72,101.392 L564.256,100.544 C563.712,100.912 563.056,101.12 562.304,101.12 C560.832,101.12 559.856,100.064 559.744,98.464 L564.976,98.464 C565.024,98.208 565.04,97.968 565.04,97.68 C565.04,95.44 563.904,94.032 561.92,94.032 C560.144,94.032 558.432,95.584 558.432,98.112 C558.432,100.688 560.064,102.192 562.144,102.192 Z M563.856,97.44 L559.744,97.44 C559.904,95.952 560.864,95.088 561.952,95.088 C563.136,95.088 563.856,95.904 563.856,97.44 Z M566.512,102.144 C567.648,102.144 568.352,101.296 568.576,99.6 C568.752,98.176 568.912,96.736 569.088,95.296 L571.488,95.296 L571.488,102 L572.816,102 L572.816,94.224 L568.032,94.224 C567.84,95.904 567.648,97.584 567.44,99.264 C567.296,100.368 566.944,100.864 566.4,100.864 C566.256,100.864 566.144,100.832 566.048,100.8 L565.792,102.016 C566.016,102.112 566.208,102.144 566.512,102.144 Z M578.576,102.192 C579.648,102.192 580.48,101.872 581.152,101.392 L580.688,100.544 C580.144,100.912 579.488,101.12 578.736,101.12 C577.264,101.12 576.288,100.064 576.176,98.464 L581.408,98.464 C581.456,98.208 581.472,97.968 581.472,97.68 C581.472,95.44 580.336,94.032 578.352,94.032 C576.576,94.032 574.864,95.584 574.864,98.112 C574.864,100.688 576.496,102.192 578.576,102.192 Z M580.288,97.44 L576.176,97.44 C576.336,95.952 577.296,95.088 578.384,95.088 C579.568,95.088 580.288,95.904 580.288,97.44 Z M584.704,102 L584.704,98.544 L588.432,98.544 L588.432,102 L589.76,102 L589.76,94.224 L588.432,94.224 L588.432,97.376 L584.704,97.376 L584.704,94.224 L583.376,94.224 L583.376,102 L584.704,102 Z M593.792,102 L596.56,97.616 C596.864,97.136 597.264,96.432 597.568,95.84 L597.632,95.84 C597.552,96.96 597.504,97.92 597.504,98.752 L597.504,102 L598.768,102 L598.768,94.224 L597.36,94.224 L594.576,98.624 C594.272,99.104 593.872,99.824 593.568,100.384 L593.504,100.384 C593.584,99.28 593.648,98.304 593.648,97.472 L593.648,94.224 L592.368,94.224 L592.368,102 L593.792,102 Z M602.064,102 L604.208,98.944 L605.68,98.944 L605.68,102 L606.976,102 L606.976,94.224 L604.24,94.224 C602.496,94.224 601.184,94.816 601.184,96.512 C601.184,97.76 601.952,98.464 602.96,98.768 L600.592,102 L602.064,102 Z M605.68,97.936 L604.464,97.936 C603.232,97.936 602.496,97.456 602.496,96.528 C602.496,95.648 603.232,95.264 604.464,95.264 L605.68,95.264 L605.68,97.936 Z M615.92,102 C617.728,102 618.992,101.312 618.992,99.776 C618.992,98.656 618.24,98.112 617.376,97.92 L617.376,97.856 C618.176,97.616 618.672,97.056 618.672,96.192 C618.672,94.784 617.504,94.224 615.808,94.224 L612.816,94.224 L612.816,102 L615.92,102 Z M615.584,97.456 L614.096,97.456 L614.096,95.2 L615.664,95.2 C616.88,95.2 617.392,95.616 617.392,96.32 C617.392,97.024 616.88,97.456 615.584,97.456 Z M615.792,101.008 L614.096,101.008 L614.096,98.464 L615.696,98.464 C617.024,98.464 617.712,98.928 617.712,99.696 C617.712,100.528 617.088,101.008 615.792,101.008 Z M624.048,102 C625.856,102 627.12,101.312 627.12,99.776 C627.12,98.656 626.368,98.112 625.504,97.92 L625.504,97.856 C626.304,97.616 626.8,97.056 626.8,96.192 C626.8,94.784 625.632,94.224 623.936,94.224 L620.944,94.224 L620.944,102 L624.048,102 Z M623.712,97.456 L622.224,97.456 L622.224,95.2 L623.792,95.2 C625.008,95.2 625.52,95.616 625.52,96.32 C625.52,97.024 625.008,97.456 623.712,97.456 Z M623.92,101.008 L622.224,101.008 L622.224,98.464 L623.824,98.464 C625.152,98.464 625.84,98.928 625.84,99.696 C625.84,100.528 625.216,101.008 623.92,101.008 Z M630.496,102 L633.264,97.616 C633.568,97.136 633.968,96.432 634.272,95.84 L634.336,95.84 C634.256,96.96 634.208,97.92 634.208,98.752 L634.208,102 L635.472,102 L635.472,94.224 L634.064,94.224 L631.28,98.624 C630.976,99.104 630.576,99.824 630.272,100.384 L630.208,100.384 C630.288,99.28 630.352,98.304 630.352,97.472 L630.352,94.224 L629.072,94.224 L629.072,102 L630.496,102 Z M638.368,104.752 L638.368,102 L643.68,102 L643.68,104.752 L644.816,104.752 L644.96,101.76 L644.96,100.912 L643.824,100.912 L643.824,94.224 L638.976,94.224 L638.56,97.664 C638.256,100.16 637.904,100.688 637.472,100.912 L637.088,100.912 L637.088,101.76 L637.232,104.752 L638.368,104.752 Z M642.496,100.912 L638.896,100.912 C639.248,100.352 639.552,99.44 639.728,97.92 L640.032,95.296 L642.496,95.296 L642.496,100.912 Z M646.704,105.344 C648.256,105.344 649.072,104.176 649.616,102.64 L652.544,94.224 L651.248,94.224 L649.856,98.512 C649.648,99.2 649.424,100 649.216,100.704 L649.152,100.704 C648.896,99.984 648.64,99.184 648.384,98.512 L646.816,94.224 L645.44,94.224 L648.56,102.016 L648.384,102.592 C648.064,103.552 647.504,104.24 646.64,104.24 C646.448,104.24 646.256,104.208 646.064,104.144 L645.776,105.184 C646.032,105.28 646.336,105.344 646.704,105.344 Z M421.52,124.192 C423.2,124.192 424.656,123.296 424.656,121.856 C424.656,120.736 423.952,120.16 423.04,119.92 L423.04,119.856 C423.856,119.536 424.336,118.88 424.336,118.128 C424.336,116.704 423.024,116.032 421.504,116.032 C420.368,116.032 419.52,116.368 418.768,116.896 L419.328,117.76 C419.952,117.312 420.544,117.072 421.44,117.072 C422.384,117.072 423.056,117.456 423.056,118.256 C423.056,118.992 422.432,119.456 421.184,119.456 L420.288,119.456 L420.288,120.464 L421.36,120.464 C422.656,120.464 423.36,120.896 423.36,121.744 C423.36,122.608 422.496,123.152 421.424,123.152 C420.64,123.152 419.872,122.944 419.152,122.352 L418.592,123.2 C419.504,123.952 420.448,124.192 421.52,124.192 Z M428.4,124.192 C429.376,124.192 430.224,123.696 430.96,123.072 L431.008,123.072 L431.136,124 L432.224,124 L432.224,119.216 C432.224,117.296 431.408,116.032 429.52,116.032 C428.272,116.032 427.184,116.56 426.464,117.04 L426.976,117.936 C427.584,117.536 428.4,117.136 429.296,117.136 C430.56,117.136 430.88,118.08 430.896,119.056 C427.568,119.424 426.128,120.256 426.128,121.984 C426.128,123.392 427.104,124.192 428.4,124.192 Z M428.768,123.104 C428.016,123.104 427.424,122.768 427.424,121.904 C427.424,120.896 428.272,120.304 430.896,120 L430.896,122.112 C430.144,122.768 429.52,123.104 428.768,123.104 Z M436.016,124 L436.016,117.296 L439.584,117.296 L439.584,124 L440.912,124 L440.912,116.224 L434.688,116.224 L434.688,124 L436.016,124 Z M446.56,124.192 C448.464,124.192 450.176,122.704 450.176,120.128 C450.176,117.52 448.464,116.032 446.56,116.032 C444.656,116.032 442.96,117.52 442.96,120.128 C442.96,122.704 444.656,124.192 446.56,124.192 Z M446.56,123.088 C445.232,123.088 444.336,121.904 444.336,120.128 C444.336,118.336 445.232,117.136 446.56,117.136 C447.904,117.136 448.8,118.336 448.8,120.128 C448.8,121.904 447.904,123.088 446.56,123.088 Z M451.776,124.144 C452.912,124.144 453.616,123.296 453.84,121.6 C454.016,120.176 454.176,118.736 454.352,117.296 L456.752,117.296 L456.752,124 L458.08,124 L458.08,116.224 L453.296,116.224 C453.104,117.904 452.912,119.584 452.704,121.264 C452.56,122.368 452.208,122.864 451.664,122.864 C451.52,122.864 451.408,122.832 451.312,122.8 L451.056,124.016 C451.28,124.112 451.472,124.144 451.776,124.144 Z M462.032,124 L462.032,120.544 L465.76,120.544 L465.76,124 L467.088,124 L467.088,116.224 L465.76,116.224 L465.76,119.376 L462.032,119.376 L462.032,116.224 L460.704,116.224 L460.704,124 L462.032,124 Z M472.832,124.192 C473.904,124.192 474.736,123.872 475.408,123.392 L474.944,122.544 C474.4,122.912 473.744,123.12 472.992,123.12 C471.52,123.12 470.544,122.064 470.432,120.464 L475.664,120.464 C475.712,120.208 475.728,119.968 475.728,119.68 C475.728,117.44 474.592,116.032 472.608,116.032 C470.832,116.032 469.12,117.584 469.12,120.112 C469.12,122.688 470.752,124.192 472.832,124.192 Z M474.544,119.44 L470.432,119.44 C470.592,117.952 471.552,117.088 472.64,117.088 C473.824,117.088 474.544,117.904 474.544,119.44 Z M478.96,124 L478.96,120.544 L482.688,120.544 L482.688,124 L484.016,124 L484.016,116.224 L482.688,116.224 L482.688,119.376 L478.96,119.376 L478.96,116.224 L477.632,116.224 L477.632,124 L478.96,124 Z M488.048,124 L490.816,119.616 C491.12,119.136 491.52,118.432 491.824,117.84 L491.888,117.84 C491.808,118.96 491.76,119.92 491.76,120.752 L491.76,124 L493.024,124 L493.024,116.224 L491.616,116.224 L488.832,120.624 C488.528,121.104 488.128,121.824 487.824,122.384 L487.76,122.384 C487.84,121.28 487.904,120.304 487.904,119.472 L487.904,116.224 L486.624,116.224 L486.624,124 L488.048,124 Z M496.32,124 L498.464,120.944 L499.936,120.944 L499.936,124 L501.232,124 L501.232,116.224 L498.496,116.224 C496.752,116.224 495.44,116.816 495.44,118.512 C495.44,119.76 496.208,120.464 497.216,120.768 L494.848,124 L496.32,124 Z M499.936,119.936 L498.72,119.936 C497.488,119.936 496.752,119.456 496.752,118.528 C496.752,117.648 497.488,117.264 498.72,117.264 L499.936,117.264 L499.936,119.936 Z M508.4,124 L508.4,117.296 L511.968,117.296 L511.968,124 L513.296,124 L513.296,116.224 L507.072,116.224 L507.072,124 L508.4,124 Z M517.248,127.28 L517.248,124.656 L517.216,123.296 C517.92,123.856 518.656,124.192 519.36,124.192 C521.136,124.192 522.736,122.64 522.736,120 C522.736,117.584 521.648,116.032 519.648,116.032 C518.752,116.032 517.872,116.528 517.168,117.12 L517.12,117.12 L517.008,116.224 L515.92,116.224 L515.92,127.28 L517.248,127.28 Z M519.136,123.072 C518.624,123.072 517.952,122.864 517.248,122.272 L517.248,118.208 C518,117.504 518.656,117.152 519.312,117.152 C520.768,117.152 521.36,118.288 521.36,120 C521.36,121.92 520.416,123.072 519.136,123.072 Z M527.824,124.192 C529.728,124.192 531.44,122.704 531.44,120.128 C531.44,117.52 529.728,116.032 527.824,116.032 C525.92,116.032 524.224,117.52 524.224,120.128 C524.224,122.704 525.92,124.192 527.824,124.192 Z M527.824,123.088 C526.496,123.088 525.6,121.904 525.6,120.128 C525.6,118.336 526.496,117.136 527.824,117.136 C529.168,117.136 530.064,118.336 530.064,120.128 C530.064,121.904 529.168,123.088 527.824,123.088 Z M534.8,124 L534.8,117.296 L538.368,117.296 L538.368,124 L539.696,124 L539.696,116.224 L533.472,116.224 L533.472,124 L534.8,124 Z M542.464,127.344 C544.016,127.344 544.832,126.176 545.376,124.64 L548.304,116.224 L547.008,116.224 L545.616,120.512 C545.408,121.2 545.184,122 544.976,122.704 L544.912,122.704 C544.656,121.984 544.4,121.184 544.144,120.512 L542.576,116.224 L541.2,116.224 L544.32,124.016 L544.144,124.592 C543.824,125.552 543.264,126.24 542.4,126.24 C542.208,126.24 542.016,126.208 541.824,126.144 L541.536,127.184 C541.792,127.28 542.096,127.344 542.464,127.344 Z M552.816,124.192 C553.744,124.192 554.624,123.84 555.328,123.2 L554.752,122.352 C554.288,122.768 553.648,123.088 552.928,123.088 C551.504,123.088 550.544,121.904 550.544,120.128 C550.544,118.336 551.568,117.136 552.976,117.136 C553.6,117.136 554.096,117.376 554.528,117.776 L555.184,116.944 C554.64,116.432 553.936,116.032 552.912,116.032 C550.912,116.032 549.168,117.52 549.168,120.128 C549.168,122.704 550.752,124.192 552.816,124.192 Z M558.352,124 L558.352,120.496 L560.032,120.496 L562.064,124 L563.504,124 L561.008,119.904 L561.664,118.384 C562.064,117.488 562.384,117.36 562.784,117.36 C562.896,117.36 562.944,117.376 563.04,117.408 L563.28,116.16 C563.152,116.096 562.992,116.064 562.816,116.064 C561.968,116.064 561.376,116.32 560.752,117.696 L559.984,119.424 L558.352,119.424 L558.352,116.224 L557.04,116.224 L557.04,124 L558.352,124 Z M567.712,124.192 C569.616,124.192 571.328,122.704 571.328,120.128 C571.328,117.52 569.616,116.032 567.712,116.032 C565.808,116.032 564.112,117.52 564.112,120.128 C564.112,122.704 565.808,124.192 567.712,124.192 Z M567.712,123.088 C566.384,123.088 565.488,121.904 565.488,120.128 C565.488,118.336 566.384,117.136 567.712,117.136 C569.056,117.136 569.952,118.336 569.952,120.128 C569.952,121.904 569.056,123.088 567.712,123.088 Z M576.464,124 C578.272,124 579.536,123.312 579.536,121.776 C579.536,120.656 578.784,120.112 577.92,119.92 L577.92,119.856 C578.72,119.616 579.216,119.056 579.216,118.192 C579.216,116.784 578.048,116.224 576.352,116.224 L573.36,116.224 L573.36,124 L576.464,124 Z M576.128,119.456 L574.64,119.456 L574.64,117.2 L576.208,117.2 C577.424,117.2 577.936,117.616 577.936,118.32 C577.936,119.024 577.424,119.456 576.128,119.456 Z M576.336,123.008 L574.64,123.008 L574.64,120.464 L576.24,120.464 C577.568,120.464 578.256,120.928 578.256,121.696 C578.256,122.528 577.632,123.008 576.336,123.008 Z M585.872,124 L585.872,120.48 C585.872,119.792 585.808,118.608 585.728,117.792 L585.792,117.792 C586.016,118.432 586.272,119.104 586.496,119.712 L587.952,123.264 L588.944,123.264 L590.384,119.712 C590.608,119.104 590.848,118.432 591.072,117.792 L591.136,117.792 C591.072,118.608 590.992,119.792 590.992,120.48 L590.992,124 L592.192,124 L592.192,116.224 L590.608,116.224 L589.152,119.856 C588.944,120.432 588.72,121.072 588.496,121.776 L588.432,121.776 C588.24,121.072 588,120.432 587.776,119.856 L586.256,116.224 L584.688,116.224 L584.688,124 L585.872,124 Z M597.84,124.192 C599.744,124.192 601.456,122.704 601.456,120.128 C601.456,117.52 599.744,116.032 597.84,116.032 C595.936,116.032 594.24,117.52 594.24,120.128 C594.24,122.704 595.936,124.192 597.84,124.192 Z M597.84,123.088 C596.512,123.088 595.616,121.904 595.616,120.128 C595.616,118.336 596.512,117.136 597.84,117.136 C599.184,117.136 600.08,118.336 600.08,120.128 C600.08,121.904 599.184,123.088 597.84,123.088 Z M603.76,126.752 L603.76,124 L609.072,124 L609.072,126.752 L610.208,126.752 L610.352,123.76 L610.352,122.912 L609.216,122.912 L609.216,116.224 L604.368,116.224 L603.952,119.664 C603.648,122.16 603.296,122.688 602.864,122.912 L602.48,122.912 L602.48,123.76 L602.624,126.752 L603.76,126.752 Z M607.888,122.912 L604.288,122.912 C604.64,122.352 604.944,121.44 605.12,119.92 L605.424,117.296 L607.888,117.296 L607.888,122.912 Z M615.04,124.192 C616.944,124.192 618.656,122.704 618.656,120.128 C618.656,117.52 616.944,116.032 615.04,116.032 C613.136,116.032 611.44,117.52 611.44,120.128 C611.44,122.704 613.136,124.192 615.04,124.192 Z M615.04,123.088 C613.712,123.088 612.816,121.904 612.816,120.128 C612.816,118.336 613.712,117.136 615.04,117.136 C616.384,117.136 617.28,118.336 617.28,120.128 C617.28,121.904 616.384,123.088 615.04,123.088 Z M623.936,114.832 C625.728,114.832 626.384,113.632 626.448,112.384 L625.36,112.384 C625.328,113.296 624.992,114.048 623.936,114.048 C622.88,114.048 622.544,113.296 622.512,112.384 L621.424,112.384 C621.488,113.632 622.144,114.832 623.936,114.832 Z M622.112,124 L624.88,119.616 C625.184,119.136 625.584,118.432 625.888,117.84 L625.952,117.84 C625.872,118.96 625.824,119.92 625.824,120.752 L625.824,124 L627.088,124 L627.088,116.224 L625.68,116.224 L622.896,120.624 C622.592,121.104 622.192,121.824 621.888,122.384 L621.824,122.384 C621.904,121.28 621.968,120.304 621.968,119.472 L621.968,116.224 L620.688,116.224 L620.688,124 L622.112,124 Z" id="Искажениераспределенияввидузаполненияпропусковмодой" fill="#333333" fill-rule="nonzero"></path>
        <g id="arrow-pointer-copy" transform="translate(380.500000, 108.000000) rotate(-180.000000) translate(-380.500000, -108.000000) translate(351.000000, 102.000000)">
            <polygon id="Rectangle" fill="#9A9FAF" transform="translate(53.000000, 6.000000) rotate(-45.000000) translate(-53.000000, -6.000000) " points="57 2 57 10 49 10"></polygon>
            <line x1="0" y1="6" x2="54.0816327" y2="6" id="Path-40" stroke="#9A9FAF" stroke-width="2" stroke-linecap="round" stroke-linejoin="round" stroke-dasharray="0,5"></line>
        </g>
        <rect id="Rectangle-Copy-29" fill="#73B0DE" x="221" y="156" width="48" height="135"></rect>
        <rect id="Rectangle-Copy-30" fill="#73B0DE" x="297" y="135" width="48" height="156"></rect>
        <rect id="Rectangle-Copy-31" fill="#F7931E" x="297" y="72" width="48" height="67"></rect>
        <rect id="Rectangle-Copy-37" fill="#73B0DE" x="373" y="183" width="48" height="108"></rect>
        <rect id="Rectangle-Copy-38" fill="#73B0DE" x="449" y="209" width="48" height="82"></rect>
    </g>
</svg>