<?xml version="1.0" encoding="UTF-8"?>
<svg width="792px" height="371px" viewBox="0 0 792 371" version="1.1" xmlns="http://www.w3.org/2000/svg" xmlns:xlink="http://www.w3.org/1999/xlink">
    <!-- Generator: Sketch 63.1 (92452) - https://sketch.com -->
    <title>stochastic</title>
    <desc>Created with Sketch.</desc>
    <g id="stochastic" stroke="none" stroke-width="1" fill="none" fill-rule="evenodd">
        <rect fill="#FFFFFF" x="0" y="0" width="792" height="371"></rect>
        <g id="axis/General-Copy" transform="translate(-586.000000, 36.000000)">
            <g id="axis/label-x" transform="translate(1217.000000, 244.000000)" font-family="SourceSansPro-Regular, Source Sans Pro" font-size="16" font-weight="normal">
                <text id="x"></text>
            </g>
            <path id="Path-6" d="M707,4 L714,18 L708,18 L708,255 L1193,255 L1193,249 L1207,256 L1193,263 L1193,257 L706,257 L706,18 L700,18 L707,4 Z" fill="#636F80" fill-rule="nonzero"></path>
            <g id="axis/label-y" font-family="SourceSansPro-Regular, Source Sans Pro" font-size="16" font-weight="normal">
                <text id="y"></text>
            </g>
        </g>
        <path d="M657.432,289.192 C659.528,289.192 661.208,288.04 661.208,286.024 C661.208,284.584 660.312,283.672 659.112,283.432 L659.112,283.368 C660.12,283 660.664,282.104 660.664,281 C660.664,279.32 659.304,278.312 657.336,278.312 C656.056,278.312 654.872,278.824 654.12,279.56 L654.84,280.456 C655.48,279.864 656.328,279.496 657.304,279.496 C658.472,279.496 659.352,280.072 659.352,281.176 C659.352,282.36 658.584,282.968 656.744,282.968 L655.88,282.968 L655.88,283.992 L657.064,283.992 C658.856,283.992 659.88,284.616 659.88,285.96 C659.88,287.272 658.776,288.008 657.416,288.008 C656.2,288.008 655.336,287.672 654.408,286.76 L653.656,287.656 C654.712,288.76 655.912,289.192 657.432,289.192 Z M664.488,289 L664.488,285.544 L668.216,285.544 L668.216,289 L669.544,289 L669.544,281.224 L668.216,281.224 L668.216,284.376 L664.488,284.376 L664.488,281.224 L663.16,281.224 L663.16,289 L664.488,289 Z M673.944,289.192 C674.92,289.192 675.768,288.696 676.504,288.072 L676.552,288.072 L676.68,289 L677.768,289 L677.768,284.216 C677.768,282.296 676.952,281.032 675.064,281.032 C673.816,281.032 672.728,281.56 672.008,282.04 L672.52,282.936 C673.128,282.536 673.944,282.136 674.84,282.136 C676.104,282.136 676.424,283.08 676.44,284.056 C673.112,284.424 671.672,285.256 671.672,286.984 C671.672,288.392 672.648,289.192 673.944,289.192 Z M674.312,288.104 C673.56,288.104 672.968,287.768 672.968,286.904 C672.968,285.896 673.816,285.304 676.44,285 L676.44,287.112 C675.688,287.768 675.064,288.104 674.312,288.104 Z M685.816,289 L685.816,281.224 L684.488,281.224 L684.488,284.84 C684.04,284.936 683.688,284.984 683.224,284.984 C681.816,284.984 681.192,284.504 681.192,283.352 L681.192,281.224 L679.864,281.224 L679.864,283.352 C679.864,285.288 681,286.072 682.968,286.072 C683.656,286.072 683.944,286.008 684.488,285.912 L684.488,289 L685.816,289 Z M691.576,289.192 C692.648,289.192 693.48,288.872 694.152,288.392 L693.688,287.544 C693.144,287.912 692.488,288.12 691.736,288.12 C690.264,288.12 689.288,287.064 689.176,285.464 L694.408,285.464 C694.456,285.208 694.472,284.968 694.472,284.68 C694.472,282.44 693.336,281.032 691.352,281.032 C689.576,281.032 687.864,282.584 687.864,285.112 C687.864,287.688 689.496,289.192 691.576,289.192 Z M693.288,284.44 L689.176,284.44 C689.336,282.952 690.296,282.088 691.384,282.088 C692.568,282.088 693.288,282.904 693.288,284.44 Z M697.704,289 L697.704,285.544 L701.432,285.544 L701.432,289 L702.76,289 L702.76,281.224 L701.432,281.224 L701.432,284.376 L697.704,284.376 L697.704,281.224 L696.376,281.224 L696.376,289 L697.704,289 Z M706.792,289 L709.56,284.616 C709.864,284.136 710.264,283.432 710.568,282.84 L710.632,282.84 C710.552,283.96 710.504,284.92 710.504,285.752 L710.504,289 L711.768,289 L711.768,281.224 L710.36,281.224 L707.576,285.624 C707.272,286.104 706.872,286.824 706.568,287.384 L706.504,287.384 C706.584,286.28 706.648,285.304 706.648,284.472 L706.648,281.224 L705.368,281.224 L705.368,289 L706.792,289 Z M717.528,289.192 C718.6,289.192 719.432,288.872 720.104,288.392 L719.64,287.544 C719.096,287.912 718.44,288.12 717.688,288.12 C716.216,288.12 715.24,287.064 715.128,285.464 L720.36,285.464 C720.408,285.208 720.424,284.968 720.424,284.68 C720.424,282.44 719.288,281.032 717.304,281.032 C715.528,281.032 713.816,282.584 713.816,285.112 C713.816,287.688 715.448,289.192 717.528,289.192 Z M719.24,284.44 L715.128,284.44 C715.288,282.952 716.248,282.088 717.336,282.088 C718.52,282.088 719.24,282.904 719.24,284.44 Z M626.592,311 L627.632,309.192 C627.904,308.728 628.16,308.248 628.416,307.8 L628.48,307.8 C628.768,308.248 629.056,308.728 629.328,309.192 L630.464,311 L631.904,311 L629.376,307.08 L631.728,303.224 L630.336,303.224 L629.392,304.92 C629.152,305.352 628.928,305.784 628.688,306.216 L628.624,306.216 C628.368,305.784 628.112,305.352 627.872,304.92 L626.832,303.224 L625.392,303.224 L627.744,306.936 L625.2,311 L626.592,311 Z M635.072,311.192 C636.048,311.192 636.896,310.696 637.632,310.072 L637.68,310.072 L637.808,311 L638.896,311 L638.896,306.216 C638.896,304.296 638.08,303.032 636.192,303.032 C634.944,303.032 633.856,303.56 633.136,304.04 L633.648,304.936 C634.256,304.536 635.072,304.136 635.968,304.136 C637.232,304.136 637.552,305.08 637.568,306.056 C634.24,306.424 632.8,307.256 632.8,308.984 C632.8,310.392 633.776,311.192 635.072,311.192 Z M635.44,310.104 C634.688,310.104 634.096,309.768 634.096,308.904 C634.096,307.896 634.944,307.304 637.568,307 L637.568,309.112 C636.816,309.768 636.192,310.104 635.44,310.104 Z M642.688,314.28 L642.688,311.656 L642.656,310.296 C643.36,310.856 644.096,311.192 644.8,311.192 C646.576,311.192 648.176,309.64 648.176,307 C648.176,304.584 647.088,303.032 645.088,303.032 C644.192,303.032 643.312,303.528 642.608,304.12 L642.56,304.12 L642.448,303.224 L641.36,303.224 L641.36,314.28 L642.688,314.28 Z M644.576,310.072 C644.064,310.072 643.392,309.864 642.688,309.272 L642.688,305.208 C643.44,304.504 644.096,304.152 644.752,304.152 C646.208,304.152 646.8,305.288 646.8,307 C646.8,308.92 645.856,310.072 644.576,310.072 Z M651.808,311.192 C652.784,311.192 653.632,310.696 654.368,310.072 L654.416,310.072 L654.544,311 L655.632,311 L655.632,306.216 C655.632,304.296 654.816,303.032 652.928,303.032 C651.68,303.032 650.592,303.56 649.872,304.04 L650.384,304.936 C650.992,304.536 651.808,304.136 652.704,304.136 C653.968,304.136 654.288,305.08 654.304,306.056 C650.976,306.424 649.536,307.256 649.536,308.984 C649.536,310.392 650.512,311.192 651.808,311.192 Z M652.176,310.104 C651.424,310.104 650.832,309.768 650.832,308.904 C650.832,307.896 651.68,307.304 654.304,307 L654.304,309.112 C653.552,309.768 652.928,310.104 652.176,310.104 Z M659.408,311 L659.408,307.496 L661.088,307.496 L663.12,311 L664.56,311 L662.064,306.904 L662.72,305.384 C663.12,304.488 663.44,304.36 663.84,304.36 C663.952,304.36 664,304.376 664.096,304.408 L664.336,303.16 C664.208,303.096 664.048,303.064 663.872,303.064 C663.024,303.064 662.432,303.32 661.808,304.696 L661.04,306.424 L659.408,306.424 L659.408,303.224 L658.096,303.224 L658.096,311 L659.408,311 Z M668.784,311 L668.784,304.296 L671.376,304.296 L671.376,303.224 L664.848,303.224 L664.848,304.296 L667.456,304.296 L667.456,311 L668.784,311 Z M676.016,311.192 C677.088,311.192 677.92,310.872 678.592,310.392 L678.128,309.544 C677.584,309.912 676.928,310.12 676.176,310.12 C674.704,310.12 673.728,309.064 673.616,307.464 L678.848,307.464 C678.896,307.208 678.912,306.968 678.912,306.68 C678.912,304.44 677.776,303.032 675.792,303.032 C674.016,303.032 672.304,304.584 672.304,307.112 C672.304,309.688 673.936,311.192 676.016,311.192 Z M677.728,306.44 L673.616,306.44 C673.776,304.952 674.736,304.088 675.824,304.088 C677.008,304.088 677.728,304.904 677.728,306.44 Z M682.144,314.28 L682.144,311.656 L682.112,310.296 C682.816,310.856 683.552,311.192 684.256,311.192 C686.032,311.192 687.632,309.64 687.632,307 C687.632,304.584 686.544,303.032 684.544,303.032 C683.648,303.032 682.768,303.528 682.064,304.12 L682.016,304.12 L681.904,303.224 L680.816,303.224 L680.816,314.28 L682.144,314.28 Z M684.032,310.072 C683.52,310.072 682.848,309.864 682.144,309.272 L682.144,305.208 C682.896,304.504 683.552,304.152 684.208,304.152 C685.664,304.152 686.256,305.288 686.256,307 C686.256,308.92 685.312,310.072 684.032,310.072 Z M691.12,311 L693.888,306.616 C694.192,306.136 694.592,305.432 694.896,304.84 L694.96,304.84 C694.88,305.96 694.832,306.92 694.832,307.752 L694.832,311 L696.096,311 L696.096,303.224 L694.688,303.224 L691.904,307.624 C691.6,308.104 691.2,308.824 690.896,309.384 L690.832,309.384 C690.912,308.28 690.976,307.304 690.976,306.472 L690.976,303.224 L689.696,303.224 L689.696,311 L691.12,311 Z M701.792,311.192 C702.72,311.192 703.6,310.84 704.304,310.2 L703.728,309.352 C703.264,309.768 702.624,310.088 701.904,310.088 C700.48,310.088 699.52,308.904 699.52,307.128 C699.52,305.336 700.544,304.136 701.952,304.136 C702.576,304.136 703.072,304.376 703.504,304.776 L704.16,303.944 C703.616,303.432 702.912,303.032 701.888,303.032 C699.888,303.032 698.144,304.52 698.144,307.128 C698.144,309.704 699.728,311.192 701.792,311.192 Z M708.896,311 L708.896,304.296 L711.488,304.296 L711.488,303.224 L704.96,303.224 L704.96,304.296 L707.568,304.296 L707.568,311 L708.896,311 Z M714.64,311 L717.408,306.616 C717.712,306.136 718.112,305.432 718.416,304.84 L718.48,304.84 C718.4,305.96 718.352,306.92 718.352,307.752 L718.352,311 L719.616,311 L719.616,303.224 L718.208,303.224 L715.424,307.624 C715.12,308.104 714.72,308.824 714.416,309.384 L714.352,309.384 C714.432,308.28 714.496,307.304 714.496,306.472 L714.496,303.224 L713.216,303.224 L713.216,311 L714.64,311 Z M723.552,311 L723.552,307.496 L725.232,307.496 L727.264,311 L728.704,311 L726.208,306.904 L726.864,305.384 C727.264,304.488 727.584,304.36 727.984,304.36 C728.096,304.36 728.144,304.376 728.24,304.408 L728.48,303.16 C728.352,303.096 728.192,303.064 728.016,303.064 C727.168,303.064 726.576,303.32 725.952,304.696 L725.184,306.424 L723.552,306.424 L723.552,303.224 L722.24,303.224 L722.24,311 L723.552,311 Z M731.584,311 L734.352,306.616 C734.656,306.136 735.056,305.432 735.36,304.84 L735.424,304.84 C735.344,305.96 735.296,306.92 735.296,307.752 L735.296,311 L736.56,311 L736.56,303.224 L735.152,303.224 L732.368,307.624 C732.064,308.104 731.664,308.824 731.36,309.384 L731.296,309.384 C731.376,308.28 731.44,307.304 731.44,306.472 L731.44,303.224 L730.16,303.224 L730.16,311 L731.584,311 Z M748.304,311 L748.304,309.864 L745.248,309.864 C744.72,309.864 744.096,309.896 743.536,309.944 C746.016,307.416 747.808,305.576 747.808,303.592 C747.808,301.8 746.624,300.6 744.736,300.6 C743.424,300.6 742.512,301.224 741.664,302.184 L742.416,302.904 C742.992,302.232 743.728,301.688 744.576,301.688 C745.872,301.688 746.512,302.504 746.512,303.672 C746.512,305.32 744.752,307.208 741.712,310.184 L741.712,311 L748.304,311 Z" id="Значениехарактеристики2" fill="#333333" fill-rule="nonzero"></path>
        <path d="M4.308,171.192 C6.404,171.192 8.084,170.04 8.084,168.024 C8.084,166.584 7.188,165.672 5.988,165.432 L5.988,165.368 C6.996,165 7.54,164.104 7.54,163 C7.54,161.32 6.18,160.312 4.212,160.312 C2.932,160.312 1.748,160.824 0.996,161.56 L1.716,162.456 C2.356,161.864 3.204,161.496 4.18,161.496 C5.348,161.496 6.228,162.072 6.228,163.176 C6.228,164.36 5.46,164.968 3.62,164.968 L2.756,164.968 L2.756,165.992 L3.94,165.992 C5.732,165.992 6.756,166.616 6.756,167.96 C6.756,169.272 5.652,170.008 4.292,170.008 C3.076,170.008 2.212,169.672 1.284,168.76 L0.532,169.656 C1.588,170.76 2.788,171.192 4.308,171.192 Z M11.364,171 L11.364,167.544 L15.092,167.544 L15.092,171 L16.42,171 L16.42,163.224 L15.092,163.224 L15.092,166.376 L11.364,166.376 L11.364,163.224 L10.036,163.224 L10.036,171 L11.364,171 Z M20.82,171.192 C21.796,171.192 22.644,170.696 23.38,170.072 L23.428,170.072 L23.556,171 L24.644,171 L24.644,166.216 C24.644,164.296 23.828,163.032 21.94,163.032 C20.692,163.032 19.604,163.56 18.884,164.04 L19.396,164.936 C20.004,164.536 20.82,164.136 21.716,164.136 C22.98,164.136 23.3,165.08 23.316,166.056 C19.988,166.424 18.548,167.256 18.548,168.984 C18.548,170.392 19.524,171.192 20.82,171.192 Z M21.188,170.104 C20.436,170.104 19.844,169.768 19.844,168.904 C19.844,167.896 20.692,167.304 23.316,167 L23.316,169.112 C22.564,169.768 21.94,170.104 21.188,170.104 Z M32.692,171 L32.692,163.224 L31.364,163.224 L31.364,166.84 C30.916,166.936 30.564,166.984 30.1,166.984 C28.692,166.984 28.068,166.504 28.068,165.352 L28.068,163.224 L26.74,163.224 L26.74,165.352 C26.74,167.288 27.876,168.072 29.844,168.072 C30.532,168.072 30.82,168.008 31.364,167.912 L31.364,171 L32.692,171 Z M38.452,171.192 C39.524,171.192 40.356,170.872 41.028,170.392 L40.564,169.544 C40.02,169.912 39.364,170.12 38.612,170.12 C37.14,170.12 36.164,169.064 36.052,167.464 L41.284,167.464 C41.332,167.208 41.348,166.968 41.348,166.68 C41.348,164.44 40.212,163.032 38.228,163.032 C36.452,163.032 34.74,164.584 34.74,167.112 C34.74,169.688 36.372,171.192 38.452,171.192 Z M40.164,166.44 L36.052,166.44 C36.212,164.952 37.172,164.088 38.26,164.088 C39.444,164.088 40.164,164.904 40.164,166.44 Z M44.58,171 L44.58,167.544 L48.308,167.544 L48.308,171 L49.636,171 L49.636,163.224 L48.308,163.224 L48.308,166.376 L44.58,166.376 L44.58,163.224 L43.252,163.224 L43.252,171 L44.58,171 Z M53.668,171 L56.436,166.616 C56.74,166.136 57.14,165.432 57.444,164.84 L57.508,164.84 C57.428,165.96 57.38,166.92 57.38,167.752 L57.38,171 L58.644,171 L58.644,163.224 L57.236,163.224 L54.452,167.624 C54.148,168.104 53.748,168.824 53.444,169.384 L53.38,169.384 C53.46,168.28 53.524,167.304 53.524,166.472 L53.524,163.224 L52.244,163.224 L52.244,171 L53.668,171 Z M64.404,171.192 C65.476,171.192 66.308,170.872 66.98,170.392 L66.516,169.544 C65.972,169.912 65.316,170.12 64.564,170.12 C63.092,170.12 62.116,169.064 62.004,167.464 L67.236,167.464 C67.284,167.208 67.3,166.968 67.3,166.68 C67.3,164.44 66.164,163.032 64.18,163.032 C62.404,163.032 60.692,164.584 60.692,167.112 C60.692,169.688 62.324,171.192 64.404,171.192 Z M66.116,166.44 L62.004,166.44 C62.164,164.952 63.124,164.088 64.212,164.088 C65.396,164.088 66.116,164.904 66.116,166.44 Z M72.708,171 L73.748,169.192 C74.02,168.728 74.276,168.248 74.532,167.8 L74.596,167.8 C74.884,168.248 75.172,168.728 75.444,169.192 L76.58,171 L78.02,171 L75.492,167.08 L77.844,163.224 L76.452,163.224 L75.508,164.92 C75.268,165.352 75.044,165.784 74.804,166.216 L74.74,166.216 C74.484,165.784 74.228,165.352 73.988,164.92 L72.948,163.224 L71.508,163.224 L73.86,166.936 L71.316,171 L72.708,171 Z M81.188,171.192 C82.164,171.192 83.012,170.696 83.748,170.072 L83.796,170.072 L83.924,171 L85.012,171 L85.012,166.216 C85.012,164.296 84.196,163.032 82.308,163.032 C81.06,163.032 79.972,163.56 79.252,164.04 L79.764,164.936 C80.372,164.536 81.188,164.136 82.084,164.136 C83.348,164.136 83.668,165.08 83.684,166.056 C80.356,166.424 78.916,167.256 78.916,168.984 C78.916,170.392 79.892,171.192 81.188,171.192 Z M81.556,170.104 C80.804,170.104 80.212,169.768 80.212,168.904 C80.212,167.896 81.06,167.304 83.684,167 L83.684,169.112 C82.932,169.768 82.308,170.104 81.556,170.104 Z M88.804,174.28 L88.804,171.656 L88.772,170.296 C89.476,170.856 90.212,171.192 90.916,171.192 C92.692,171.192 94.292,169.64 94.292,167 C94.292,164.584 93.204,163.032 91.204,163.032 C90.308,163.032 89.428,163.528 88.724,164.12 L88.676,164.12 L88.564,163.224 L87.476,163.224 L87.476,174.28 L88.804,174.28 Z M90.692,170.072 C90.18,170.072 89.508,169.864 88.804,169.272 L88.804,165.208 C89.556,164.504 90.212,164.152 90.868,164.152 C92.324,164.152 92.916,165.288 92.916,167 C92.916,168.92 91.972,170.072 90.692,170.072 Z M97.924,171.192 C98.9,171.192 99.748,170.696 100.484,170.072 L100.532,170.072 L100.66,171 L101.748,171 L101.748,166.216 C101.748,164.296 100.932,163.032 99.044,163.032 C97.796,163.032 96.708,163.56 95.988,164.04 L96.5,164.936 C97.108,164.536 97.924,164.136 98.82,164.136 C100.084,164.136 100.404,165.08 100.42,166.056 C97.092,166.424 95.652,167.256 95.652,168.984 C95.652,170.392 96.628,171.192 97.924,171.192 Z M98.292,170.104 C97.54,170.104 96.948,169.768 96.948,168.904 C96.948,167.896 97.796,167.304 100.42,167 L100.42,169.112 C99.668,169.768 99.044,170.104 98.292,170.104 Z M105.524,171 L105.524,167.496 L107.204,167.496 L109.236,171 L110.676,171 L108.18,166.904 L108.836,165.384 C109.236,164.488 109.556,164.36 109.956,164.36 C110.068,164.36 110.116,164.376 110.212,164.408 L110.452,163.16 C110.324,163.096 110.164,163.064 109.988,163.064 C109.14,163.064 108.548,163.32 107.924,164.696 L107.156,166.424 L105.524,166.424 L105.524,163.224 L104.212,163.224 L104.212,171 L105.524,171 Z M114.9,171 L114.9,164.296 L117.492,164.296 L117.492,163.224 L110.964,163.224 L110.964,164.296 L113.572,164.296 L113.572,171 L114.9,171 Z M122.132,171.192 C123.204,171.192 124.036,170.872 124.708,170.392 L124.244,169.544 C123.7,169.912 123.044,170.12 122.292,170.12 C120.82,170.12 119.844,169.064 119.732,167.464 L124.964,167.464 C125.012,167.208 125.028,166.968 125.028,166.68 C125.028,164.44 123.892,163.032 121.908,163.032 C120.132,163.032 118.42,164.584 118.42,167.112 C118.42,169.688 120.052,171.192 122.132,171.192 Z M123.844,166.44 L119.732,166.44 C119.892,164.952 120.852,164.088 121.94,164.088 C123.124,164.088 123.844,164.904 123.844,166.44 Z M128.26,174.28 L128.26,171.656 L128.228,170.296 C128.932,170.856 129.668,171.192 130.372,171.192 C132.148,171.192 133.748,169.64 133.748,167 C133.748,164.584 132.66,163.032 130.66,163.032 C129.764,163.032 128.884,163.528 128.18,164.12 L128.132,164.12 L128.02,163.224 L126.932,163.224 L126.932,174.28 L128.26,174.28 Z M130.148,170.072 C129.636,170.072 128.964,169.864 128.26,169.272 L128.26,165.208 C129.012,164.504 129.668,164.152 130.324,164.152 C131.78,164.152 132.372,165.288 132.372,167 C132.372,168.92 131.428,170.072 130.148,170.072 Z M137.236,171 L140.004,166.616 C140.308,166.136 140.708,165.432 141.012,164.84 L141.076,164.84 C140.996,165.96 140.948,166.92 140.948,167.752 L140.948,171 L142.212,171 L142.212,163.224 L140.804,163.224 L138.02,167.624 C137.716,168.104 137.316,168.824 137.012,169.384 L136.948,169.384 C137.028,168.28 137.092,167.304 137.092,166.472 L137.092,163.224 L135.812,163.224 L135.812,171 L137.236,171 Z M147.908,171.192 C148.836,171.192 149.716,170.84 150.42,170.2 L149.844,169.352 C149.38,169.768 148.74,170.088 148.02,170.088 C146.596,170.088 145.636,168.904 145.636,167.128 C145.636,165.336 146.66,164.136 148.068,164.136 C148.692,164.136 149.188,164.376 149.62,164.776 L150.276,163.944 C149.732,163.432 149.028,163.032 148.004,163.032 C146.004,163.032 144.26,164.52 144.26,167.128 C144.26,169.704 145.844,171.192 147.908,171.192 Z M155.012,171 L155.012,164.296 L157.604,164.296 L157.604,163.224 L151.076,163.224 L151.076,164.296 L153.684,164.296 L153.684,171 L155.012,171 Z M160.756,171 L163.524,166.616 C163.828,166.136 164.228,165.432 164.532,164.84 L164.596,164.84 C164.516,165.96 164.468,166.92 164.468,167.752 L164.468,171 L165.732,171 L165.732,163.224 L164.324,163.224 L161.54,167.624 C161.236,168.104 160.836,168.824 160.532,169.384 L160.468,169.384 C160.548,168.28 160.612,167.304 160.612,166.472 L160.612,163.224 L159.332,163.224 L159.332,171 L160.756,171 Z M169.668,171 L169.668,167.496 L171.348,167.496 L173.38,171 L174.82,171 L172.324,166.904 L172.98,165.384 C173.38,164.488 173.7,164.36 174.1,164.36 C174.212,164.36 174.26,164.376 174.356,164.408 L174.596,163.16 C174.468,163.096 174.308,163.064 174.132,163.064 C173.284,163.064 172.692,163.32 172.068,164.696 L171.3,166.424 L169.668,166.424 L169.668,163.224 L168.356,163.224 L168.356,171 L169.668,171 Z M177.7,171 L180.468,166.616 C180.772,166.136 181.172,165.432 181.476,164.84 L181.54,164.84 C181.46,165.96 181.412,166.92 181.412,167.752 L181.412,171 L182.676,171 L182.676,163.224 L181.268,163.224 L178.484,167.624 C178.18,168.104 177.78,168.824 177.476,169.384 L177.412,169.384 C177.492,168.28 177.556,167.304 177.556,166.472 L177.556,163.224 L176.276,163.224 L176.276,171 L177.7,171 Z M194.212,171 L194.212,169.896 L192.116,169.896 L192.116,160.792 L191.092,160.792 C190.532,161.128 189.86,161.384 188.916,161.544 L188.916,162.408 L190.788,162.408 L190.788,169.896 L188.452,169.896 L188.452,171 L194.212,171 Z" id="Значениехарактеристики1" fill="#333333" fill-rule="nonzero" transform="translate(97.372000, 167.296000) rotate(-90.000000) translate(-97.372000, -167.296000) "></path>
        <g id="Group" transform="translate(185.000000, 311.000000)">
            <circle id="Oval-Copy-236" stroke="#F7931E" stroke-width="2" cx="8" cy="11" r="7"></circle>
            <path d="M30.784,16 L30.784,11.84 L32.496,11.84 C34.8,11.84 36.384,10.816 36.384,8.592 C36.384,6.288 34.784,5.504 32.432,5.504 L29.44,5.504 L29.44,16 L30.784,16 Z M32.336,10.752 L30.784,10.752 L30.784,6.592 L32.272,6.592 C34.112,6.592 35.04,7.088 35.04,8.592 C35.04,10.08 34.16,10.752 32.336,10.752 Z M41.136,16.192 C42.208,16.192 43.04,15.872 43.712,15.392 L43.248,14.544 C42.704,14.912 42.048,15.12 41.296,15.12 C39.824,15.12 38.848,14.064 38.736,12.464 L43.968,12.464 C44.016,12.208 44.032,11.968 44.032,11.68 C44.032,9.44 42.896,8.032 40.912,8.032 C39.136,8.032 37.424,9.584 37.424,12.112 C37.424,14.688 39.056,16.192 41.136,16.192 Z M42.848,11.44 L38.736,11.44 C38.896,9.952 39.856,9.088 40.944,9.088 C42.128,9.088 42.848,9.904 42.848,11.44 Z M47.504,16.192 C48.48,16.192 49.328,15.696 50.064,15.072 L50.112,15.072 L50.24,16 L51.328,16 L51.328,11.216 C51.328,9.296 50.512,8.032 48.624,8.032 C47.376,8.032 46.288,8.56 45.568,9.04 L46.08,9.936 C46.688,9.536 47.504,9.136 48.4,9.136 C49.664,9.136 49.984,10.08 50,11.056 C46.672,11.424 45.232,12.256 45.232,13.984 C45.232,15.392 46.208,16.192 47.504,16.192 Z M47.872,15.104 C47.12,15.104 46.528,14.768 46.528,13.904 C46.528,12.896 47.376,12.304 50,12 L50,14.112 C49.248,14.768 48.624,15.104 47.872,15.104 Z M53.36,16.144 C54.496,16.144 55.2,15.296 55.424,13.6 C55.6,12.176 55.76,10.736 55.936,9.296 L58.336,9.296 L58.336,16 L59.664,16 L59.664,8.224 L54.88,8.224 C54.688,9.904 54.496,11.584 54.288,13.264 C54.144,14.368 53.792,14.864 53.248,14.864 C53.104,14.864 52.992,14.832 52.896,14.8 L52.64,16.016 C52.864,16.112 53.056,16.144 53.36,16.144 Z M65.072,16 C66.912,16 68.16,15.248 68.16,13.52 C68.16,11.808 66.912,11.088 65.072,11.088 L63.616,11.088 L63.616,8.224 L62.288,8.224 L62.288,16 L65.072,16 Z M64.928,14.944 L63.616,14.944 L63.616,12.112 L64.928,12.112 C66.24,12.112 66.864,12.544 66.864,13.52 C66.864,14.496 66.24,14.944 64.928,14.944 Z M71.472,16 L71.472,12.544 L75.2,12.544 L75.2,16 L76.528,16 L76.528,8.224 L75.2,8.224 L75.2,11.376 L71.472,11.376 L71.472,8.224 L70.144,8.224 L70.144,16 L71.472,16 Z M81.552,16 C83.392,16 84.64,15.248 84.64,13.52 C84.64,11.808 83.392,11.088 81.552,11.088 L80.464,11.088 L80.464,8.224 L79.136,8.224 L79.136,16 L81.552,16 Z M87.312,16 L87.312,8.224 L85.984,8.224 L85.984,16 L87.312,16 Z M81.408,14.944 L80.464,14.944 L80.464,12.112 L81.408,12.112 C82.72,12.112 83.344,12.544 83.344,13.52 C83.344,14.496 82.72,14.944 81.408,14.944 Z M93.072,16.192 C94.144,16.192 94.976,15.872 95.648,15.392 L95.184,14.544 C94.64,14.912 93.984,15.12 93.232,15.12 C91.76,15.12 90.784,14.064 90.672,12.464 L95.904,12.464 C95.952,12.208 95.968,11.968 95.968,11.68 C95.968,9.44 94.832,8.032 92.848,8.032 C91.072,8.032 89.36,9.584 89.36,12.112 C89.36,14.688 90.992,16.192 93.072,16.192 Z M94.784,11.44 L90.672,11.44 C90.832,9.952 91.792,9.088 92.88,9.088 C94.064,9.088 94.784,9.904 94.784,11.44 Z M101.344,18.752 L101.344,16 L106.656,16 L106.656,18.752 L107.792,18.752 L107.936,15.76 L107.936,14.912 L106.8,14.912 L106.8,8.224 L101.952,8.224 L101.536,11.664 C101.232,14.16 100.88,14.688 100.448,14.912 L100.064,14.912 L100.064,15.76 L100.208,18.752 L101.344,18.752 Z M105.472,14.912 L101.872,14.912 C102.224,14.352 102.528,13.44 102.704,11.92 L103.008,9.296 L105.472,9.296 L105.472,14.912 Z M111.456,16.192 C112.432,16.192 113.28,15.696 114.016,15.072 L114.064,15.072 L114.192,16 L115.28,16 L115.28,11.216 C115.28,9.296 114.464,8.032 112.576,8.032 C111.328,8.032 110.24,8.56 109.52,9.04 L110.032,9.936 C110.64,9.536 111.456,9.136 112.352,9.136 C113.616,9.136 113.936,10.08 113.952,11.056 C110.624,11.424 109.184,12.256 109.184,13.984 C109.184,15.392 110.16,16.192 111.456,16.192 Z M111.824,15.104 C111.072,15.104 110.48,14.768 110.48,13.904 C110.48,12.896 111.328,12.304 113.952,12 L113.952,14.112 C113.2,14.768 112.576,15.104 111.824,15.104 Z M119.072,16 L119.072,12.544 L122.8,12.544 L122.8,16 L124.128,16 L124.128,8.224 L122.8,8.224 L122.8,11.376 L119.072,11.376 L119.072,8.224 L117.744,8.224 L117.744,16 L119.072,16 Z M128.064,16 L128.064,12.544 L131.792,12.544 L131.792,16 L133.12,16 L133.12,8.224 L131.792,8.224 L131.792,11.376 L128.064,11.376 L128.064,8.224 L126.736,8.224 L126.736,16 L128.064,16 Z M138.144,16 C139.984,16 141.232,15.248 141.232,13.52 C141.232,11.808 139.984,11.088 138.144,11.088 L137.056,11.088 L137.056,8.224 L135.728,8.224 L135.728,16 L138.144,16 Z M143.904,16 L143.904,8.224 L142.576,8.224 L142.576,16 L143.904,16 Z M138,14.944 L137.056,14.944 L137.056,12.112 L138,12.112 C139.312,12.112 139.936,12.544 139.936,13.52 C139.936,14.496 139.312,14.944 138,14.944 Z M149.664,16.192 C150.736,16.192 151.568,15.872 152.24,15.392 L151.776,14.544 C151.232,14.912 150.576,15.12 149.824,15.12 C148.352,15.12 147.376,14.064 147.264,12.464 L152.496,12.464 C152.544,12.208 152.56,11.968 152.56,11.68 C152.56,9.44 151.424,8.032 149.44,8.032 C147.664,8.032 145.952,9.584 145.952,12.112 C145.952,14.688 147.584,16.192 149.664,16.192 Z M151.376,11.44 L147.264,11.44 C147.424,9.952 148.384,9.088 149.472,9.088 C150.656,9.088 151.376,9.904 151.376,11.44 Z" id="Реальныеданные" fill="#333333" fill-rule="nonzero"></path>
            <path d="M219.448,16.192 C221.544,16.192 223.224,15.04 223.224,13.024 C223.224,11.584 222.328,10.672 221.128,10.432 L221.128,10.368 C222.136,10 222.68,9.104 222.68,8 C222.68,6.32 221.32,5.312 219.352,5.312 C218.072,5.312 216.888,5.824 216.136,6.56 L216.856,7.456 C217.496,6.864 218.344,6.496 219.32,6.496 C220.488,6.496 221.368,7.072 221.368,8.176 C221.368,9.36 220.6,9.968 218.76,9.968 L217.896,9.968 L217.896,10.992 L219.08,10.992 C220.872,10.992 221.896,11.616 221.896,12.96 C221.896,14.272 220.792,15.008 219.432,15.008 C218.216,15.008 217.352,14.672 216.424,13.76 L215.672,14.656 C216.728,15.76 217.928,16.192 219.448,16.192 Z M226.968,16.192 C227.944,16.192 228.792,15.696 229.528,15.072 L229.576,15.072 L229.704,16 L230.792,16 L230.792,11.216 C230.792,9.296 229.976,8.032 228.088,8.032 C226.84,8.032 225.752,8.56 225.032,9.04 L225.544,9.936 C226.152,9.536 226.968,9.136 227.864,9.136 C229.128,9.136 229.448,10.08 229.464,11.056 C226.136,11.424 224.696,12.256 224.696,13.984 C224.696,15.392 225.672,16.192 226.968,16.192 Z M227.336,15.104 C226.584,15.104 225.992,14.768 225.992,13.904 C225.992,12.896 226.84,12.304 229.464,12 L229.464,14.112 C228.712,14.768 228.088,15.104 227.336,15.104 Z M234.584,16 L234.584,9.296 L238.152,9.296 L238.152,16 L239.48,16 L239.48,8.224 L233.256,8.224 L233.256,16 L234.584,16 Z M245.128,16.192 C247.032,16.192 248.744,14.704 248.744,12.128 C248.744,9.52 247.032,8.032 245.128,8.032 C243.224,8.032 241.528,9.52 241.528,12.128 C241.528,14.704 243.224,16.192 245.128,16.192 Z M245.128,15.088 C243.8,15.088 242.904,13.904 242.904,12.128 C242.904,10.336 243.8,9.136 245.128,9.136 C246.472,9.136 247.368,10.336 247.368,12.128 C247.368,13.904 246.472,15.088 245.128,15.088 Z M250.344,16.144 C251.48,16.144 252.184,15.296 252.408,13.6 C252.584,12.176 252.744,10.736 252.92,9.296 L255.32,9.296 L255.32,16 L256.648,16 L256.648,8.224 L251.864,8.224 C251.672,9.904 251.48,11.584 251.272,13.264 C251.128,14.368 250.776,14.864 250.232,14.864 C250.088,14.864 249.976,14.832 249.88,14.8 L249.624,16.016 C249.848,16.112 250.04,16.144 250.344,16.144 Z M260.6,16 L260.6,12.544 L264.328,12.544 L264.328,16 L265.656,16 L265.656,8.224 L264.328,8.224 L264.328,11.376 L260.6,11.376 L260.6,8.224 L259.272,8.224 L259.272,16 L260.6,16 Z M271.4,16.192 C272.472,16.192 273.304,15.872 273.976,15.392 L273.512,14.544 C272.968,14.912 272.312,15.12 271.56,15.12 C270.088,15.12 269.112,14.064 269,12.464 L274.232,12.464 C274.28,12.208 274.296,11.968 274.296,11.68 C274.296,9.44 273.16,8.032 271.176,8.032 C269.4,8.032 267.688,9.584 267.688,12.112 C267.688,14.688 269.32,16.192 271.4,16.192 Z M273.112,11.44 L269,11.44 C269.16,9.952 270.12,9.088 271.208,9.088 C272.392,9.088 273.112,9.904 273.112,11.44 Z M277.528,16 L277.528,12.544 L281.256,12.544 L281.256,16 L282.584,16 L282.584,8.224 L281.256,8.224 L281.256,11.376 L277.528,11.376 L277.528,8.224 L276.2,8.224 L276.2,16 L277.528,16 Z M286.52,16 L286.52,12.544 L290.248,12.544 L290.248,16 L291.576,16 L291.576,8.224 L290.248,8.224 L290.248,11.376 L286.52,11.376 L286.52,8.224 L285.192,8.224 L285.192,16 L286.52,16 Z M296.6,16 C298.44,16 299.688,15.248 299.688,13.52 C299.688,11.808 298.44,11.088 296.6,11.088 L295.512,11.088 L295.512,8.224 L294.184,8.224 L294.184,16 L296.6,16 Z M302.36,16 L302.36,8.224 L301.032,8.224 L301.032,16 L302.36,16 Z M296.456,14.944 L295.512,14.944 L295.512,12.112 L296.456,12.112 C297.768,12.112 298.392,12.544 298.392,13.52 C298.392,14.496 297.768,14.944 296.456,14.944 Z M308.12,16.192 C309.192,16.192 310.024,15.872 310.696,15.392 L310.232,14.544 C309.688,14.912 309.032,15.12 308.28,15.12 C306.808,15.12 305.832,14.064 305.72,12.464 L310.952,12.464 C311,12.208 311.016,11.968 311.016,11.68 C311.016,9.44 309.88,8.032 307.896,8.032 C306.12,8.032 304.408,9.584 304.408,12.112 C304.408,14.688 306.04,16.192 308.12,16.192 Z M309.832,11.44 L305.72,11.44 C305.88,9.952 306.84,9.088 307.928,9.088 C309.112,9.088 309.832,9.904 309.832,11.44 Z M317.448,16 L317.448,9.296 L321.016,9.296 L321.016,16 L322.344,16 L322.344,8.224 L316.12,8.224 L316.12,16 L317.448,16 Z M326.296,19.28 L326.296,16.656 L326.264,15.296 C326.968,15.856 327.704,16.192 328.408,16.192 C330.184,16.192 331.784,14.64 331.784,12 C331.784,9.584 330.696,8.032 328.696,8.032 C327.8,8.032 326.92,8.528 326.216,9.12 L326.168,9.12 L326.056,8.224 L324.968,8.224 L324.968,19.28 L326.296,19.28 Z M328.184,15.072 C327.672,15.072 327,14.864 326.296,14.272 L326.296,10.208 C327.048,9.504 327.704,9.152 328.36,9.152 C329.816,9.152 330.408,10.288 330.408,12 C330.408,13.92 329.464,15.072 328.184,15.072 Z M336.872,16.192 C338.776,16.192 340.488,14.704 340.488,12.128 C340.488,9.52 338.776,8.032 336.872,8.032 C334.968,8.032 333.272,9.52 333.272,12.128 C333.272,14.704 334.968,16.192 336.872,16.192 Z M336.872,15.088 C335.544,15.088 334.648,13.904 334.648,12.128 C334.648,10.336 335.544,9.136 336.872,9.136 C338.216,9.136 339.112,10.336 339.112,12.128 C339.112,13.904 338.216,15.088 336.872,15.088 Z M343.848,16 L343.848,9.296 L347.416,9.296 L347.416,16 L348.744,16 L348.744,8.224 L342.52,8.224 L342.52,16 L343.848,16 Z M351.512,19.344 C353.064,19.344 353.88,18.176 354.424,16.64 L357.352,8.224 L356.056,8.224 L354.664,12.512 C354.456,13.2 354.232,14 354.024,14.704 L353.96,14.704 C353.704,13.984 353.448,13.184 353.192,12.512 L351.624,8.224 L350.248,8.224 L353.368,16.016 L353.192,16.592 C352.872,17.552 352.312,18.24 351.448,18.24 C351.256,18.24 351.064,18.208 350.872,18.144 L350.584,19.184 C350.84,19.28 351.144,19.344 351.512,19.344 Z M361.864,16.192 C362.792,16.192 363.672,15.84 364.376,15.2 L363.8,14.352 C363.336,14.768 362.696,15.088 361.976,15.088 C360.552,15.088 359.592,13.904 359.592,12.128 C359.592,10.336 360.616,9.136 362.024,9.136 C362.648,9.136 363.144,9.376 363.576,9.776 L364.232,8.944 C363.688,8.432 362.984,8.032 361.96,8.032 C359.96,8.032 358.216,9.52 358.216,12.128 C358.216,14.704 359.8,16.192 361.864,16.192 Z M367.4,16 L367.4,12.496 L369.08,12.496 L371.112,16 L372.552,16 L370.056,11.904 L370.712,10.384 C371.112,9.488 371.432,9.36 371.832,9.36 C371.944,9.36 371.992,9.376 372.088,9.408 L372.328,8.16 C372.2,8.096 372.04,8.064 371.864,8.064 C371.016,8.064 370.424,8.32 369.8,9.696 L369.032,11.424 L367.4,11.424 L367.4,8.224 L366.088,8.224 L366.088,16 L367.4,16 Z M375.432,16 L378.2,11.616 C378.504,11.136 378.904,10.432 379.208,9.84 L379.272,9.84 C379.192,10.96 379.144,11.92 379.144,12.752 L379.144,16 L380.408,16 L380.408,8.224 L379,8.224 L376.216,12.624 C375.912,13.104 375.512,13.824 375.208,14.384 L375.144,14.384 C375.224,13.28 375.288,12.304 375.288,11.472 L375.288,8.224 L374.008,8.224 L374.008,16 L375.432,16 Z" id="Заполненныепропуски" fill="#333333" fill-rule="nonzero"></path>
            <line x1="187.5" y1="18.5" x2="202.5" y2="3.5" id="Line-35" stroke="#73B0DE" stroke-width="2" stroke-linecap="square"></line>
            <line x1="187.5" y1="18.5" x2="202.5" y2="3.5" id="Line-35-Copy-2" stroke="#73B0DE" stroke-width="2" stroke-linecap="square" transform="translate(195.000000, 11.000000) scale(-1, 1) translate(-195.000000, -11.000000) "></line>
        </g>
        <g id="Group-20" transform="translate(136.000000, 49.000000)" stroke-width="2">
            <line x1="6" y1="228" x2="462" y2="12" id="Line" stroke="#9A9FAF" stroke-dasharray="6"></line>
            <circle id="Oval" stroke="#F7931E" cx="433" cy="8" r="7"></circle>
            <circle id="Oval-Copy-191" stroke="#F7931E" cx="461" cy="26" r="7"></circle>
            <circle id="Oval-Copy-192" stroke="#F7931E" cx="417" cy="35" r="7"></circle>
            <circle id="Oval-Copy-193" stroke="#F7931E" cx="419" cy="24" r="7"></circle>
            <circle id="Oval-Copy-194" stroke="#F7931E" cx="380" cy="37" r="7"></circle>
            <circle id="Oval-Copy-195" stroke="#F7931E" cx="359" cy="40" r="7"></circle>
            <circle id="Oval-Copy-201" stroke="#F7931E" cx="338" cy="51" r="7"></circle>
            <circle id="Oval-Copy-202" stroke="#F7931E" cx="344" cy="60" r="7"></circle>
            <circle id="Oval-Copy-203" stroke="#F7931E" cx="334" cy="64" r="7"></circle>
            <circle id="Oval-Copy-200" stroke="#F7931E" cx="281" cy="52" r="7"></circle>
            <circle id="Oval-Copy-209" stroke="#F7931E" cx="280" cy="93" r="7"></circle>
            <circle id="Oval-Copy-210" stroke="#F7931E" cx="286" cy="102" r="7"></circle>
            <circle id="Oval-Copy-211" stroke="#F7931E" cx="248" cy="98" r="7"></circle>
            <circle id="Oval-Copy-212" stroke="#F7931E" cx="220" cy="97" r="7"></circle>
            <circle id="Oval-Copy-215" stroke="#F7931E" cx="245" cy="128" r="7"></circle>
            <circle id="Oval-Copy-216" stroke="#F7931E" cx="249" cy="128" r="7"></circle>
            <circle id="Oval-Copy-218" stroke="#F7931E" cx="218" cy="126" r="7"></circle>
            <circle id="Oval-Copy-219" stroke="#F7931E" cx="207" cy="129" r="7"></circle>
            <circle id="Oval-Copy-220" stroke="#F7931E" cx="215" cy="137" r="7"></circle>
            <circle id="Oval-Copy-221" stroke="#F7931E" cx="192" cy="152" r="7"></circle>
            <circle id="Oval-Copy-217" stroke="#F7931E" cx="235" cy="161" r="7"></circle>
            <circle id="Oval-Copy-213" stroke="#F7931E" cx="189" cy="115" r="7"></circle>
            <circle id="Oval-Copy-222" stroke="#F7931E" cx="176" cy="136" r="7"></circle>
            <circle id="Oval-Copy-223" stroke="#F7931E" cx="165" cy="133" r="7"></circle>
            <circle id="Oval-Copy-224" stroke="#F7931E" cx="140" cy="133" r="7"></circle>
            <circle id="Oval-Copy-225" stroke="#F7931E" cx="113" cy="138" r="7"></circle>
            <circle id="Oval-Copy-226" stroke="#F7931E" cx="61" cy="159" r="7"></circle>
            <circle id="Oval-Copy-240" stroke="#F7931E" cx="50" cy="200" r="7"></circle>
            <circle id="Oval-Copy-235" stroke="#F7931E" cx="103" cy="169" r="7"></circle>
            <circle id="Oval-Copy-237" stroke="#F7931E" cx="82" cy="181" r="7"></circle>
            <circle id="Oval-Copy-238" stroke="#F7931E" cx="89" cy="189" r="7"></circle>
            <circle id="Oval-Copy-239" stroke="#F7931E" cx="79" cy="192" r="7"></circle>
            <circle id="Oval-Copy-227" stroke="#F7931E" cx="124" cy="159" r="7"></circle>
            <circle id="Oval-Copy-228" stroke="#F7931E" cx="150" cy="157" r="7"></circle>
            <circle id="Oval-Copy-229" stroke="#F7931E" cx="145" cy="162" r="7"></circle>
            <circle id="Oval-Copy-230" stroke="#F7931E" cx="172" cy="154" r="7"></circle>
            <circle id="Oval-Copy-231" stroke="#F7931E" cx="163" cy="169" r="7"></circle>
            <circle id="Oval-Copy-232" stroke="#F7931E" cx="176" cy="191" r="7"></circle>
            <circle id="Oval-Copy-241" stroke="#F7931E" cx="107" cy="205" r="7"></circle>
            <circle id="Oval-Copy-242" stroke="#F7931E" cx="75" cy="215" r="7"></circle>
            <circle id="Oval-Copy-243" stroke="#F7931E" cx="51" cy="221" r="7"></circle>
            <circle id="Oval-Copy-244" stroke="#F7931E" cx="29" cy="198" r="7"></circle>
            <circle id="Oval-Copy-245" stroke="#F7931E" cx="8" cy="218" r="7"></circle>
            <circle id="Oval-Copy-246" stroke="#F7931E" cx="15" cy="226" r="7"></circle>
            <circle id="Oval-Copy-233" stroke="#F7931E" cx="125" cy="186" r="7"></circle>
            <circle id="Oval-Copy-234" stroke="#F7931E" cx="120" cy="190" r="7"></circle>
            <circle id="Oval-Copy-214" stroke="#F7931E" cx="140" cy="89" r="7"></circle>
            <circle id="Oval-Copy-196" stroke="#F7931E" cx="386" cy="61" r="7"></circle>
            <circle id="Oval-Copy-197" stroke="#F7931E" cx="376" cy="64" r="7"></circle>
            <circle id="Oval-Copy-199" stroke="#F7931E" cx="419" cy="64" r="7"></circle>
            <circle id="Oval-Copy-198" stroke="#F7931E" cx="362" cy="76" r="7"></circle>
            <circle id="Oval-Copy-204" stroke="#F7931E" cx="331" cy="86" r="7"></circle>
            <circle id="Oval-Copy-205" stroke="#F7931E" cx="356" cy="108" r="7"></circle>
            <circle id="Oval-Copy-206" stroke="#F7931E" cx="314" cy="108" r="7"></circle>
            <circle id="Oval-Copy-207" stroke="#F7931E" cx="306" cy="73" r="7"></circle>
            <circle id="Oval-Copy-208" stroke="#F7931E" cx="306" cy="84" r="7"></circle>
            <g id="Group-17" transform="translate(389.000000, 34.000000)" stroke="#73B0DE" stroke-linecap="square">
                <line x1="0.5" y1="15.5" x2="15.5" y2="0.5" id="Line-35"></line>
                <line x1="0.5" y1="15.5" x2="15.5" y2="0.5" id="Line-35-Copy-2" transform="translate(8.000000, 8.000000) scale(-1, 1) translate(-8.000000, -8.000000) "></line>
            </g>
            <g id="Group-17-Copy-2" transform="translate(430.000000, 23.000000)" stroke="#73B0DE" stroke-linecap="square">
                <line x1="0.5" y1="15.5" x2="15.5" y2="0.5" id="Line-35"></line>
                <line x1="0.5" y1="15.5" x2="15.5" y2="0.5" id="Line-35-Copy-2" transform="translate(8.000000, 8.000000) scale(-1, 1) translate(-8.000000, -8.000000) "></line>
            </g>
            <g id="Group-17-Copy-3" transform="translate(438.000000, 25.000000)" stroke="#73B0DE" stroke-linecap="square">
                <line x1="0.5" y1="15.5" x2="15.5" y2="0.5" id="Line-35"></line>
                <line x1="0.5" y1="15.5" x2="15.5" y2="0.5" id="Line-35-Copy-2" transform="translate(8.000000, 8.000000) scale(-1, 1) translate(-8.000000, -8.000000) "></line>
            </g>
            <g id="Group-17-Copy" transform="translate(354.000000, 33.000000)" stroke="#73B0DE" stroke-linecap="square">
                <line x1="0.5" y1="15.5" x2="15.5" y2="0.5" id="Line-35"></line>
                <line x1="0.5" y1="15.5" x2="15.5" y2="0.5" id="Line-35-Copy-2" transform="translate(8.000000, 8.000000) scale(-1, 1) translate(-8.000000, -8.000000) "></line>
            </g>
            <g id="Group-17-Copy-4" transform="translate(316.000000, 44.000000)" stroke="#73B0DE" stroke-linecap="square">
                <line x1="0.5" y1="15.5" x2="15.5" y2="0.5" id="Line-35"></line>
                <line x1="0.5" y1="15.5" x2="15.5" y2="0.5" id="Line-35-Copy-2" transform="translate(8.000000, 8.000000) scale(-1, 1) translate(-8.000000, -8.000000) "></line>
            </g>
            <g id="Group-17-Copy-5" transform="translate(299.000000, 98.000000)" stroke="#73B0DE" stroke-linecap="square">
                <line x1="0.5" y1="15.5" x2="15.5" y2="0.5" id="Line-35"></line>
                <line x1="0.5" y1="15.5" x2="15.5" y2="0.5" id="Line-35-Copy-2" transform="translate(8.000000, 8.000000) scale(-1, 1) translate(-8.000000, -8.000000) "></line>
            </g>
            <g id="Group-17-Copy-6" transform="translate(288.000000, 70.000000)" stroke="#73B0DE" stroke-linecap="square">
                <line x1="0.5" y1="15.5" x2="15.5" y2="0.5" id="Line-35"></line>
                <line x1="0.5" y1="15.5" x2="15.5" y2="0.5" id="Line-35-Copy-2" transform="translate(8.000000, 8.000000) scale(-1, 1) translate(-8.000000, -8.000000) "></line>
            </g>
            <g id="Group-17-Copy-7" transform="translate(258.000000, 109.000000)" stroke="#73B0DE" stroke-linecap="square">
                <line x1="0.5" y1="15.5" x2="15.5" y2="0.5" id="Line-35"></line>
                <line x1="0.5" y1="15.5" x2="15.5" y2="0.5" id="Line-35-Copy-2" transform="translate(8.000000, 8.000000) scale(-1, 1) translate(-8.000000, -8.000000) "></line>
            </g>
            <g id="Group-17-Copy-8" transform="translate(253.000000, 87.000000)" stroke="#73B0DE" stroke-linecap="square">
                <line x1="0.5" y1="15.5" x2="15.5" y2="0.5" id="Line-35"></line>
                <line x1="0.5" y1="15.5" x2="15.5" y2="0.5" id="Line-35-Copy-2" transform="translate(8.000000, 8.000000) scale(-1, 1) translate(-8.000000, -8.000000) "></line>
            </g>
            <g id="Group-17-Copy-9" transform="translate(239.000000, 98.000000)" stroke="#73B0DE" stroke-linecap="square">
                <line x1="0.5" y1="15.5" x2="15.5" y2="0.5" id="Line-35"></line>
                <line x1="0.5" y1="15.5" x2="15.5" y2="0.5" id="Line-35-Copy-2" transform="translate(8.000000, 8.000000) scale(-1, 1) translate(-8.000000, -8.000000) "></line>
            </g>
            <g id="Group-17-Copy-10" transform="translate(226.000000, 114.000000)" stroke="#73B0DE" stroke-linecap="square">
                <line x1="0.5" y1="15.5" x2="15.5" y2="0.5" id="Line-35"></line>
                <line x1="0.5" y1="15.5" x2="15.5" y2="0.5" id="Line-35-Copy-2" transform="translate(8.000000, 8.000000) scale(-1, 1) translate(-8.000000, -8.000000) "></line>
            </g>
            <g id="Group-17-Copy-11" transform="translate(205.000000, 79.000000)" stroke="#73B0DE" stroke-linecap="square">
                <line x1="0.5" y1="15.5" x2="15.5" y2="0.5" id="Line-35"></line>
                <line x1="0.5" y1="15.5" x2="15.5" y2="0.5" id="Line-35-Copy-2" transform="translate(8.000000, 8.000000) scale(-1, 1) translate(-8.000000, -8.000000) "></line>
            </g>
            <g id="Group-17-Copy-12" transform="translate(184.000000, 124.000000)" stroke="#73B0DE" stroke-linecap="square">
                <line x1="0.5" y1="15.5" x2="15.5" y2="0.5" id="Line-35"></line>
                <line x1="0.5" y1="15.5" x2="15.5" y2="0.5" id="Line-35-Copy-2" transform="translate(8.000000, 8.000000) scale(-1, 1) translate(-8.000000, -8.000000) "></line>
            </g>
            <g id="Group-17-Copy-13" transform="translate(173.000000, 157.000000)" stroke="#73B0DE" stroke-linecap="square">
                <line x1="0.5" y1="15.5" x2="15.5" y2="0.5" id="Line-35"></line>
                <line x1="0.5" y1="15.5" x2="15.5" y2="0.5" id="Line-35-Copy-2" transform="translate(8.000000, 8.000000) scale(-1, 1) translate(-8.000000, -8.000000) "></line>
            </g>
            <g id="Group-17-Copy-14" transform="translate(123.000000, 178.000000)" stroke="#73B0DE" stroke-linecap="square">
                <line x1="0.5" y1="15.5" x2="15.5" y2="0.5" id="Line-35"></line>
                <line x1="0.5" y1="15.5" x2="15.5" y2="0.5" id="Line-35-Copy-2" transform="translate(8.000000, 8.000000) scale(-1, 1) translate(-8.000000, -8.000000) "></line>
            </g>
            <g id="Group-17-Copy-15" transform="translate(111.000000, 159.000000)" stroke="#73B0DE" stroke-linecap="square">
                <line x1="0.5" y1="15.5" x2="15.5" y2="0.5" id="Line-35"></line>
                <line x1="0.5" y1="15.5" x2="15.5" y2="0.5" id="Line-35-Copy-2" transform="translate(8.000000, 8.000000) scale(-1, 1) translate(-8.000000, -8.000000) "></line>
            </g>
            <g id="Group-17-Copy-16" transform="translate(84.000000, 143.000000)" stroke="#73B0DE" stroke-linecap="square">
                <line x1="0.5" y1="15.5" x2="15.5" y2="0.5" id="Line-35"></line>
                <line x1="0.5" y1="15.5" x2="15.5" y2="0.5" id="Line-35-Copy-2" transform="translate(8.000000, 8.000000) scale(-1, 1) translate(-8.000000, -8.000000) "></line>
            </g>
            <g id="Group-17-Copy-17" transform="translate(29.000000, 210.000000)" stroke="#73B0DE" stroke-linecap="square">
                <line x1="0.5" y1="15.5" x2="15.5" y2="0.5" id="Line-35"></line>
                <line x1="0.5" y1="15.5" x2="15.5" y2="0.5" id="Line-35-Copy-2" transform="translate(8.000000, 8.000000) scale(-1, 1) translate(-8.000000, -8.000000) "></line>
            </g>
            <g id="Group-17-Copy-18" transform="translate(55.000000, 180.000000)" stroke="#73B0DE" stroke-linecap="square">
                <line x1="0.5" y1="15.5" x2="15.5" y2="0.5" id="Line-35"></line>
                <line x1="0.5" y1="15.5" x2="15.5" y2="0.5" id="Line-35-Copy-2" transform="translate(8.000000, 8.000000) scale(-1, 1) translate(-8.000000, -8.000000) "></line>
            </g>
        </g>
    </g>
</svg>